<?xml version="1.0" encoding="UTF-8" standalone="no"?>
<!-- Created with Inkscape (http://www.inkscape.org/) -->

<svg
   version="1.1"
   id="svg1"
   width="767.99927"
   height="324.55066"
   viewBox="0 0 767.99927 324.55066"
   sodipodi:docname="AOR-READY.ai"
   xmlns:inkscape="http://www.inkscape.org/namespaces/inkscape"
   xmlns:sodipodi="http://sodipodi.sourceforge.net/DTD/sodipodi-0.dtd"
   xmlns="http://www.w3.org/2000/svg"
   xmlns:svg="http://www.w3.org/2000/svg">
  <defs
     id="defs1" />
  <sodipodi:namedview
     id="namedview1"
     pagecolor="#505050"
     bordercolor="#eeeeee"
     borderopacity="1"
     inkscape:showpageshadow="0"
     inkscape:pageopacity="0"
     inkscape:pagecheckerboard="0"
     inkscape:deskcolor="#505050">
    <inkscape:page
       x="0"
       y="0"
       width="767.99927"
       height="324.55066"
       id="page2"
       margin="0"
       bleed="0" />
  </sodipodi:namedview>
  <g
     id="layer-MC0"
     inkscape:groupmode="layer"
     inkscape:label="Layer 1"
     transform="translate(-22.616549,-36.918674)">
    <path
       id="path105"
       d="M 0,0 C 0.137,-0.529 0.614,-0.898 1.161,-0.898 H 4.57 L 3.357,3.801 h 4.952 l 1.222,-4.699 h 2.787 c 0.784,0 1.358,0.741 1.16,1.501 l -2.763,10.622 c -0.137,0.528 -0.614,0.897 -1.16,0.897 H 6.145 L 7.485,6.97 H 2.533 l -1.34,5.152 h -2.788 c -0.784,0 -1.357,-0.741 -1.16,-1.5 z"
       style="fill:#ffffff;fill-opacity:1;fill-rule:nonzero;stroke:none"
       transform="matrix(1.3333333,0,0,-1.3333333,412.7684,298.76307)" />
    <path
       id="path106"
       d="M 0,0 H 2.689 L 2.988,1.928 3.966,8.257 9.787,0.896 10.503,0 h 2.725 l 0.299,1.883 1.72,11.137 H 11.662 L 10.53,5.668 4.717,13.02 H 1.123 L 0.969,12.042 -0.009,5.722 -5.786,13.02 h -4.508 L -0.742,0.951 Z"
       style="fill:#ffffff;fill-opacity:1;fill-rule:nonzero;stroke:none"
       transform="matrix(1.3333333,0,0,-1.3333333,383.9492,299.96027)" />
    <path
       id="path107"
       d="M 0,0 C 0.837,0 1.624,-0.396 2.122,-1.068 L 2.698,-1.845 C 2.937,-2.168 2.707,-2.626 2.304,-2.626 H -2.574 L -3.253,0 Z m -0.781,-9.489 -0.806,3.088 7.111,0.139 c 1.065,0.021 1.819,1.049 1.518,2.071 L 5.465,1.168 C 5.052,2.569 3.766,3.531 2.306,3.531 H -8.893 l 3.386,-13.02 z"
       style="fill:#ffffff;fill-opacity:1;fill-rule:nonzero;stroke:none"
       transform="matrix(1.3333333,0,0,-1.3333333,444.30053,287.3088)" />
    <path
       id="path108"
       d="m 0,0 c 0,0 5.014,12.107 -12.684,16.946 0,0 8.75,19.024 -2.916,26.647 -11.667,7.623 -30.5,1.889 -32.484,0.944 0,0 10.01,14.662 27.037,13.164 17.027,-1.497 24.752,-15.213 15.135,-36.26 0,0 8.829,-6.543 9.302,-11.351 C 3.863,5.281 1.892,1.261 0,0 m -16.786,-50.646 c -8.475,-6.21 -16.833,-0.87 -17.297,0 -0.465,0.871 10.68,-2.844 15.729,3.657 5.05,6.501 6.908,24.901 6.908,24.901 0.174,-0.058 3.134,-22.347 -5.34,-28.558 m -23.082,60.934 c 0.279,0.111 17.762,6.459 22.996,-4.399 5.233,-10.857 -4.566,-19.097 -6.348,-19.765 0,0 5.747,-10.24 -2.547,-13.391 0,0 4.865,9.314 -2.41,12.65 0,0 9.453,7.228 5.283,16.217 -4.171,8.989 -16.974,8.688 -16.974,8.688 m -33.616,-49.885 c -8.248,-3.963 -18.687,-8.759 -23.006,-10.68 -0.711,-1.963 -1.364,-2.973 -1.364,-2.973 l -8.561,-2.966 -0.385,-4.805 13.167,-19.125 -4.517,-5.382 -44.209,2.691 -14.947,15.858 c -20.577,-2.425 -42.672,-2.769 -62.281,4.887 -11.911,4.651 -22.101,12.805 -29.828,22.902 l -6.039,-4.732 c 2.299,-2.859 24.108,-17.94 24.108,-17.94 -21.136,4.765 -31.347,18.579 -34.849,28.481 -1.206,3.411 -1.786,6.289 -1.996,8.587 l -5.117,-2.051 c 0.795,0.512 2.605,1.459 5.06,2.677 -0.258,3.965 0.656,5.952 1.323,5.496 1.037,-0.707 1.752,-3.778 1.796,-3.97 1.548,0.75 3.242,1.559 5.024,2.404 -0.906,2.32 -1.697,4.685 -2.367,7.085 l -17.679,-5.045 c 1.005,0.794 8.413,3.5 17.273,6.571 -0.612,2.388 -1.105,4.806 -1.476,7.243 -10.339,-1.737 -18.322,-2.97 -16.854,-2.368 0.123,0.05 0.292,0.109 0.504,0.176 2.119,0.667 8.532,2.122 16.125,3.762 -0.705,5.408 -0.81,10.891 -0.267,16.318 l -19.783,2.139 19.884,-1.269 c 0.053,0.469 0.101,0.937 0.163,1.405 0.111,0.824 1.489,5.276 3.183,10.316 l -8.487,2.487 c 0,0 3.536,-0.838 8.633,-2.05 1.569,4.648 3.377,9.71 4.699,12.868 l -14.635,8.215 15.076,-7.19 c 0.625,1.4 1.094,2.208 1.304,2.089 -4.177,2.367 -5.144,3.003 -7.79,13.723 -2.646,10.72 0.875,20.494 0.875,20.494 1.208,-3.443 9.223,-15.621 9.223,-15.621 0.322,4.742 2.193,7.613 2.193,7.613 0,0 0,-10.613 0.226,-10.903 0.226,-0.29 1.988,-0.907 1.988,-0.907 0,0 -1.083,3.146 0.336,8.436 1.42,5.29 6.259,13.903 6.259,13.903 l -8.527,-2.536 c 2.145,4.07 7.921,9.671 10.109,11.027 2.188,1.357 4.726,2.276 11.203,-2.888 6.476,-5.163 13.009,-10.328 13.009,-10.328 1.156,0.407 2.667,0.732 4.37,0.996 -0.021,1.354 -0.035,2.927 0.029,2.692 0.232,-0.855 0.615,-1.814 0.935,-2.552 0.589,0.08 1.194,0.153 1.813,0.22 0.134,3.713 0.451,6.301 0.515,6.398 l 0.789,-6.267 c 0.896,0.083 1.808,0.155 2.725,0.216 0.328,4.743 0.932,7.998 0.958,7.953 0.569,-0.992 0.973,-4.006 1.262,-7.823 6.287,0.32 12.059,0.223 12.059,0.223 0,0 9.855,10.624 12.241,12.664 2.387,2.04 6.583,7.16 12.241,5.274 5.659,-1.887 12.28,-12.01 12.28,-12.01 -5.774,4.08 -12.049,2.463 -12.049,2.463 3.118,-1.771 15.975,-17.284 15.975,-17.284 l -1.078,6.852 3.574,-5.61 c 6.879,5.705 13.894,20.751 16.297,25.935 2.404,5.185 3.204,3.647 3.204,3.647 1.841,-6.59 -0.541,-34.366 -3.258,-41.727 -2.717,-7.361 -9.422,-7.233 -9.422,-7.233 l 0.219,-4.166 c 0,0 7.152,-1.496 9.97,-5.333 3.411,-4.645 2.163,-10.421 2.163,-10.421 2.369,-0.816 11.188,-8.247 14.618,-16.25 3.429,-8.003 1.76,-16.44 1.76,-16.44 0,0 0.355,-0.092 0.965,-0.404 9.057,11.444 25.899,31.972 25.899,31.972 l -16.978,-27.1 10.84,9.86 -7.967,-11.036 34.022,27.427 -38.593,-35.353 20.701,15.305 -20.096,-19.346 c 0.037,-0.06 0.074,-0.126 0.11,-0.187 l 25.797,17.574 c 0,0 -18.765,-15.672 -23.654,-19.726 v 0 0 c -0.262,-0.217 -0.478,-0.396 -0.656,-0.542 0.542,-1.061 1.083,-2.218 1.62,-3.479 2.902,2.056 17.958,12.711 22.495,15.716 5.028,3.33 25.075,19.328 25.075,19.328 0,0 -7.967,-10.728 -21.027,-20.416 -11.006,-8.163 -22.057,-15.707 -25.262,-17.879 0.309,-0.843 0.615,-1.713 0.916,-2.635 0.025,-0.076 0.046,-0.15 0.071,-0.226 l 36.421,23.068 c 0,0 -2.677,-5.224 -16.26,-14.235 -10.38,-6.887 -16.78,-10.638 -19.227,-12.028 0.175,-0.675 0.33,-1.333 0.473,-1.983 1.907,0.756 6.569,2.682 11.049,5.14 5.811,3.19 14.562,8.479 14.562,8.479 0,0 -4.571,-5.551 -12.473,-10.513 -4.899,-3.078 -9.539,-5.877 -12.36,-7.561 0.068,-0.537 0.123,-1.061 0.17,-1.577 2.794,1.293 10.742,4.984 14.737,6.997 4.898,2.467 17.174,8.867 17.174,8.867 0,0 -4.571,-4.637 -16.39,-11.036 -8.165,-4.421 -13.086,-6.908 -15.35,-8.024 0.015,-1.022 -0.004,-1.999 -0.059,-2.917 3.394,1.681 16.12,8.002 21.416,10.875 6.138,3.331 28.145,14.171 28.145,14.171 0,0 -11.297,-8.62 -31.932,-19.329 -10.658,-5.532 -15.682,-8.185 -18.056,-9.461 -0.117,-0.694 -0.249,-1.345 -0.392,-1.951 3.761,1.882 22.114,11.067 26.153,13.175 4.506,2.351 26.577,12.276 26.577,12.276 0,0 -20.569,-12.995 -30.625,-17.827 m 24.33,-2.608 c -4.218,-2.593 -9.284,-0.487 -9.284,-0.487 -0.041,-0.246 -1.721,-3.728 -4.999,-3.81 -3.277,-0.082 -5.039,3.564 -5.039,3.564 5.604,-2.461 7.118,4.121 7.118,4.121 10.683,-5.048 14.451,5.981 14.451,5.981 0,0 1.971,-6.776 -2.247,-9.369 m -179.484,-58.79 h -11.643 l 2.381,6.002 h 12.033 z m -2.707,-8.864 -2.462,-5.342 -1.404,-3.051 c -0.787,-1.703 -2.499,-2.798 -4.373,-2.798 h -8.646 l 2.317,5.849 h 5.197 l 2.454,5.342 h -4.418 l 2.037,4.427 h 11.336 z m -23.73,-11.191 c -1.295,0 -2.155,1.349 -1.612,2.526 l 1.53,3.323 2.463,5.342 2.037,4.427 2.046,4.437 0.326,0.706 c 1.467,3.169 4.591,5.215 8.067,5.287 l -10.33,-26.048 z m -5.821,0 h -6.274 l -0.724,5.849 -0.671,5.342 -0.488,3.911 -0.616,4.953 -0.742,6.002 h 6.881 l 0.606,-6.002 0.444,-4.437 0.38,-3.794 1.675,3.794 1.947,4.437 2.634,6.002 h 6.963 l -2.77,-6.002 -2.047,-4.437 -2.037,-4.427 -2.463,-5.342 z m -9.977,11.191 -2.49,-5.342 -2.725,-5.849 h -6.067 l 2.717,5.849 2.49,5.342 2.064,4.427 2.728,6.138 0.893,-6.138 0.625,-3.92 z m -15.022,-11.191 h -6.284 l 2.699,5.849 2.462,5.342 2.037,4.427 2.047,4.437 2.761,6.002 h 6.293 l -2.771,-6.002 -2.046,-4.437 -2.037,-4.427 -2.463,-5.342 z m -9.668,0 h -6.274 l -0.725,5.849 -0.67,5.342 -0.489,3.911 -0.615,4.953 -0.743,6.002 h 6.881 l 0.607,-6.002 0.444,-4.437 0.38,-3.794 1.675,3.794 1.947,4.437 2.634,6.002 h 6.963 l -2.771,-6.002 -2.046,-4.437 -2.037,-4.427 -2.463,-5.342 z m -9.977,11.191 -2.49,-5.342 -2.725,-5.849 h -6.067 l 2.716,5.849 2.49,5.342 2.065,4.427 2.727,6.138 0.894,-6.138 0.625,-3.92 z m -12.243,-7.407 c -1.069,-2.308 -3.378,-3.784 -5.913,-3.784 h -4.998 l 2.327,5.849 h 2.635 l 2.463,5.342 2.037,4.427 2.046,4.437 2.771,6.002 h 6.899 l -2.771,-6.002 -2.046,-4.437 -2.037,-4.427 -2.463,-5.342 z m -17.52,-3.784 c -2.725,0 -4.536,2.825 -3.395,5.306 l 0.253,0.543 2.463,5.342 2.037,4.427 2.046,4.437 2.771,6.002 h 6.736 l -2.771,-6.002 -2.046,-4.437 -2.037,-4.427 -2.463,-5.342 h 3.025 l -2.318,-5.849 z m -7.289,15.618 -2.037,-4.427 -2.462,-5.342 -2.689,-5.849 h -6.718 l 2.698,5.849 2.462,5.342 2.038,4.427 1.195,2.599 h 6.718 z m 12.015,10.439 -2.77,-6.002 h -20.752 l 2.77,6.002 z m -7.469,77.566 h 19.104 l -27.027,-70.503 h -19.104 z m -39.284,-70.329 h -21.157 l 6.178,15.518 h 6.92 c 1.96,0 3.73,1.172 4.496,2.975 l 12.105,28.519 c 1.367,3.22 -0.997,6.791 -4.496,6.791 h -3.782 l 6.771,17.007 h 15.773 c 6.285,0 10.563,-6.375 8.181,-12.191 l -21.356,-52.154 c -1.601,-3.91 -5.408,-6.465 -9.633,-6.465 m 9.378,-10.632 -1.195,-2.607 -2.046,-4.437 -2.037,-4.427 -2.463,-5.342 -1.023,-2.218 c -1.023,-2.219 -3.232,-3.631 -5.668,-3.631 h -5.124 l 2.317,5.849 h 2.78 l 2.463,5.342 2.037,4.427 2.046,4.437 h -3.694 l 2.381,6.002 h 7.053 c 1.748,0 2.907,-1.81 2.173,-3.395 m -25.36,-22.662 c -2.381,0 -4.12,1.947 -4.12,4.12 0,0.57 0.118,1.158 0.381,1.729 l 2.462,5.342 2.037,4.427 2.047,4.437 0.941,2.037 c 1.114,2.417 3.531,3.965 6.193,3.965 h 3.875 l -2.381,-6.002 h -1.874 l -2.046,-4.437 -2.037,-4.427 -2.463,-5.342 h 2.789 l -2.318,-5.849 z m -6.727,5.849 -2.698,-5.849 h -6.275 l -0.724,5.849 -0.67,5.342 -0.489,3.911 -0.616,4.953 -0.742,6.002 h 6.881 l 0.607,-6.002 0.443,-4.437 0.38,-3.794 1.675,3.794 1.947,4.437 2.635,6.002 h 6.962 l -2.77,-6.002 -2.046,-4.437 -2.038,-4.427 z m -12.676,5.342 -2.49,-5.342 -2.725,-5.849 h -6.066 l 2.716,5.849 2.49,5.342 2.064,4.427 2.728,6.138 0.894,-6.138 0.625,-3.92 z m -16.967,-2.662 -1.159,-2.68 -2.517,-5.849 h -6.537 l 2.526,5.849 1.82,4.228 1.014,1.114 4.029,4.427 1.394,1.539 2.644,2.898 5.46,6.002 h 7.27 l -5.46,-6.002 -4.038,-4.437 -4.029,-4.427 z m -14.133,2.662 -2.4,-5.342 -0.501,-1.121 c -1.287,-2.876 -4.144,-4.728 -7.295,-4.728 h -15.572 l 5.025,11.191 1.983,4.427 0.959,2.137 h 6.746 l -0.96,-2.137 -1.983,-4.427 -2.291,-5.107 -0.099,-0.235 h 6.582 l 0.109,0.235 2.29,5.107 1.983,4.427 1.992,4.437 h -13.337 l 2.69,6.002 h 15.446 c 2.487,0 4.148,-2.563 3.131,-4.833 l -0.524,-1.169 -1.992,-4.437 z m 14.604,8.864 v -0.037 l -3.848,-4.4 -3.079,-3.531 -0.126,3.531 -0.154,4.437 -0.209,6.002 h 7.207 z m -99.884,-20.055 -9.38,19.285 h 35.99 l 55.374,84.501 h 37.465 l -26.039,-69.779 h -20.462 l 15.636,41.893 -49.742,-75.9 z m 135.943,104.104 h 19.167 l -6.771,-17.007 h -5.32 c -1.96,0 -3.729,-1.171 -4.495,-2.975 l -11.161,-26.295 c -1.367,-3.22 -0.965,-9.015 5.152,-9.015 h 0.581 l -6.178,-15.518 h -16.469 c -6.75,0 -8.784,6.507 -6.226,12.754 l 19.625,49.939 c 2.011,4.91 6.79,8.117 12.095,8.117 m 123.246,-16.747 c 0.052,0.353 0.528,0.428 0.69,0.11 1.056,-2.082 3.592,-7.011 4.918,-9.019 1.409,-2.134 5.086,-8.37 6.31,-10.452 0.152,-0.26 -0.11,-0.556 -0.392,-0.451 -1.896,0.708 -4.761,2.722 -8.69,7.158 -3.585,4.047 -3.199,10.201 -2.836,12.654 m 38.514,-33.857 5.437,-19.867 h -70.621 l -5.437,19.867 z m -64.816,50.123 c 2.88,-0.127 5.786,-0.516 8.439,-1.593 1.412,-0.58 2.852,-1.313 3.802,-2.508 1.358,-1.693 2.354,-3.667 2.916,-5.759 0.145,-0.543 0.262,-1.095 0.353,-1.656 0.615,-4.03 -0.634,-7.887 -2.164,-11.553 -1.666,-4.002 -3.939,-7.733 -6.791,-11.001 -1.322,-1.503 -2.743,-2.915 -4.246,-4.228 -3.812,-3.332 -8.502,-5.713 -13.536,-6.411 -0.199,-0.027 -0.398,-0.054 -0.606,-0.072 l 6.935,-25.722 h -20.716 l -8.166,31.498 2.779,7.244 h 17.819 c 3.676,1.738 6.772,4.88 8.682,8.366 0.698,1.267 1.268,2.698 1.06,4.128 -0.154,1.051 -0.743,2.037 -1.594,2.662 -1.077,0.797 -2.39,0.779 -3.648,0.942 h -15.238 l 6.003,15.663 z m 28.814,58.866 0.234,-0.077 c 0.234,-0.078 -2.416,-7.403 -4.715,-14.65 -2.299,-7.248 -4.948,-8.65 -4.948,-8.65 -1.598,5.415 -0.479,9.544 0.623,12.585 2.104,5.805 8.806,10.792 8.806,10.792 m -11.65,-5.649 c 1.52,2.104 6.663,5.338 6.663,5.221 0,-0.117 -1.247,-2.572 -3.585,-6.507 -2.338,-3.935 -4.675,-5.922 -4.675,-5.922 -0.507,2.454 -0.57,4.207 1.597,7.208 m 167.4,-16.296 c -1.989,1.233 -6.763,6.762 -9.667,10.621 -2.904,3.859 -11.153,14.899 -11.153,14.899 0,0 10.875,-2.805 16.683,-10.085 5.808,-7.28 4.137,-15.435 4.137,-15.435 m -3.303,23.624 c 5.231,-4.83 4.386,-8.635 4.386,-8.635 -4.663,1.755 -14.221,12.052 -14.406,12.19 0,0 5.91,0.239 10.02,-3.555 m 9.645,-19.912 c 0.19,0.299 2.973,3.112 3.185,2.701 -0.67,1.299 -1.127,2.726 -1.167,4.187 -0.041,1.46 0.357,2.955 1.253,4.11 0.93,1.201 2.345,1.969 3.825,2.312 1.48,0.342 3.027,0.288 4.53,0.065 -2.154,-1.493 -4.19,-3.293 -5.357,-5.641 -1.166,-2.347 -1.317,-5.331 0.159,-7.497 -1.463,-0.185 -2.822,-1.068 -3.586,-2.329 -0.763,-1.262 -0.916,-2.875 -0.402,-4.257 -1.088,0.622 -2.14,1.309 -2.683,2.485 -0.566,1.229 -0.482,2.718 0.243,3.864 m 40.837,22.788 c 0.246,-0.204 1.309,0.243 1.599,0.304 0.871,0.183 1.761,0.286 2.653,0.278 3.096,-0.03 5.923,-1.28 7.945,-3.629 1.576,-1.83 3,-4.568 2.969,-7.035 -0.006,-0.475 -0.068,-0.949 -0.184,-1.409 -0.052,-0.207 -0.529,-1.131 -0.47,-1.272 0,10e-4 -4.994,11.867 -14.982,9.263 0,0 -6.297,6.701 -14.865,0.128 0,0 4.066,12.89 15.335,3.372 M 8.659,21.336 c -1.521,3.55 -1.458,3.628 0.698,11.895 2.156,8.267 3.043,15.305 -5.199,25.26 -6.041,7.295 -20.426,12.241 -31.673,12.241 -4.1,0 -7.781,-0.657 -10.492,-2.096 -10.144,-5.39 -10.576,-8.049 -18.989,-8.283 -0.216,-0.006 -0.429,-0.009 -0.639,-0.009 -5.417,0 -8.869,1.922 -13.129,1.922 -2.006,0.001 -4.19,-0.426 -6.843,-1.679 -6.078,-2.873 -13.445,-9.777 -17.155,-13.485 -0.743,-0.742 -1.721,-1.12 -2.706,-1.12 -0.797,0 -1.598,0.246 -2.283,0.745 -2.338,1.7 -5.969,3.96 -9.732,4.826 -4.3,0.989 -8.922,1.545 -11.461,1.8 -1.098,0.111 -1.916,1.055 -1.871,2.158 l 0.285,6.992 c 0.117,2.875 0.319,5.742 0.613,8.603 0.491,4.774 1.218,12.867 1.059,17.549 -0.235,6.911 -2.436,16.116 -6.416,20.717 -0.013,0.016 -0.031,0.024 -0.048,0.024 -0.017,0 -0.034,-0.008 -0.045,-0.026 -0.658,-1.089 -9.463,-15.679 -12.145,-20.951 -1.133,-2.227 -2.289,-3.939 -3.262,-5.186 -0.609,-0.781 -1.508,-1.174 -2.41,-1.174 -0.839,0 -1.681,0.339 -2.296,1.023 l -6.295,6.99 c 0,0 -12.078,13.088 -17.937,13.089 -0.217,0 -0.424,-0.018 -0.622,-0.055 -5.573,-1.039 -10.437,-5.62 -14.263,-12.609 -3.825,-6.99 -6.423,-9.823 -9.587,-9.87 -0.021,-10e-4 -0.042,-10e-4 -0.063,-10e-4 -3.142,0 -6.201,3.467 -6.943,4.21 -0.074,0.073 -0.148,0.107 -0.223,0.107 -0.679,0 -1.392,-2.761 -2.28,-2.815 -0.017,-0.001 -0.034,-0.001 -0.051,-0.001 -0.907,0 -1.659,1.454 -2.235,1.454 -0.036,0 -0.071,-0.006 -0.105,-0.018 -0.587,-0.206 -0.906,-1.706 -3.138,-1.706 -0.043,0 -0.087,0.001 -0.131,0.002 -2.351,0.06 -8.135,3.091 -14.663,8.267 -3.417,2.71 -7.354,4.001 -11.193,4.001 -3.495,0 -6.91,-1.069 -9.781,-3.112 -6.026,-4.288 -6.631,-6.56 -6.451,-9.927 0.227,-4.239 1.2,-8.463 1.314,-9.348 0.123,-0.959 -0.813,-1.643 -1.871,-1.643 -0.301,0 -0.611,0.055 -0.911,0.175 -1.351,0.541 -3.399,7.726 -4.982,9.657 -0.668,0.814 -1.589,1.519 -2.553,1.519 -1.323,0 -2.727,-1.329 -3.666,-5.533 -1.623,-7.265 -3.432,-21.761 -3.432,-21.761 0,0 -8.616,-2.91 -14.068,-8.42 -1.793,-1.812 -9.165,-11.239 -5.725,-20.711 3.44,-9.472 1.877,-12.644 -0.357,-16.844 -2.234,-4.2 -7.054,-9.413 -6.882,-11.764 0.173,-2.35 0.692,-1.624 1.591,-2.696 0.899,-1.072 0.034,-2.766 -2.662,-2.766 -2.697,0 -156.653,0.925 -156.653,0.925 l -54.953,-86.871 h -41.654 l 16.29,-31.767 306.687,1.945 11.224,28.026 c 1.503,3.753 1.357,7.965 -0.4,11.605 l -5.374,11.13 c -1.198,2.482 0.722,5.127 3.188,5.127 0.418,0 0.852,-0.076 1.289,-0.242 l 19.546,-7.417 c 0,0 3.561,-0.454 11.344,-0.454 1.79,0 3.801,0.024 6.046,0.083 9.592,0.252 16.321,1.069 18.637,1.388 0.113,0.015 0.225,0.023 0.337,0.023 0.469,0 0.927,-0.136 1.326,-0.397 2.471,-1.617 10.285,-6.878 15.311,-11.93 0.739,-0.743 1.729,-1.174 2.777,-1.21 l 51.587,-1.775 4.424,5.33 -11.069,22.8 c -0.98,2.019 0.544,4.259 2.643,4.259 0.207,0 0.419,-0.021 0.635,-0.067 l 18.09,-3.825 c 0,0 4.371,-0.32 9.569,-0.32 1.733,0 3.558,0.035 5.342,0.13 7.141,0.379 11.014,1.378 13.859,2.626 1.817,0.797 3.289,2.633 6.208,2.633 1.652,0 3.767,-0.588 6.671,-2.283 1.705,-0.995 3.685,-1.416 5.778,-1.416 7.776,0 17.103,5.805 19.581,9.502 3.145,4.693 4.006,9.357 3.816,16.331 -0.191,6.975 6.911,8.94 12.237,13.379 5.326,4.438 9.764,11.983 8.686,20.036 -1.078,8.052 -5.199,19.528 -6.721,23.079"
       style="fill:#ffffff;fill-opacity:1;fill-rule:nonzero;stroke:none"
       transform="matrix(1.3333333,0,0,-1.3333333,765.0584,187.60893)" />
    <path
       id="path109"
       d="m 0,0 c -1.528,-1.273 -3.149,-2.326 -4.719,-3.344 -4.326,-2.807 -6.973,-4.724 -6.867,-8.594 0.177,-6.482 -0.457,-11.92 -4.122,-17.389 -2.749,-4.102 -12.561,-10.305 -21.085,-10.305 -2.55,0 -4.801,0.56 -6.69,1.663 -2.314,1.351 -4.251,2.036 -5.759,2.036 -1.466,0 -2.435,-0.636 -3.558,-1.372 -0.598,-0.392 -1.216,-0.798 -1.922,-1.108 -3.601,-1.579 -8.07,-2.434 -14.49,-2.776 -1.661,-0.088 -3.493,-0.133 -5.442,-0.133 -5.203,0 -9.517,0.311 -9.698,0.324 l -0.123,0.01 -18.21,3.851 c -0.088,0.018 -0.175,0.028 -0.259,0.028 -0.385,0 -0.744,-0.206 -0.96,-0.551 -0.124,-0.199 -0.298,-0.607 -0.055,-1.107 l 11.579,-23.85 -5.736,-6.911 -52.475,1.805 c -1.512,0.052 -2.932,0.671 -3.999,1.742 -4.925,4.952 -12.741,10.202 -15.019,11.693 -0.102,0.066 -0.215,0.101 -0.335,0.101 -2.548,-0.344 -9.304,-1.157 -18.926,-1.409 -2.113,-0.056 -4.167,-0.084 -6.104,-0.084 -7.802,0 -11.414,0.449 -11.563,0.467 l -0.213,0.028 -19.746,7.493 c -0.217,0.082 -0.435,0.124 -0.647,0.124 -0.581,0 -1.147,-0.325 -1.476,-0.849 -0.188,-0.3 -0.449,-0.918 -0.081,-1.68 l 5.373,-11.129 c 1.975,-4.089 2.139,-8.852 0.45,-13.067 l -11.675,-29.155 -309.018,-1.96 -18.151,35.397 h 43.62 l 54.958,86.876 1.003,-0.006 c 1.54,-0.009 153.981,-0.925 156.642,-0.925 0.385,0 0.672,0.048 0.875,0.108 -1.079,0.71 -1.473,1.553 -1.609,3.41 -0.146,1.989 1.386,4.277 3.898,7.846 1.171,1.662 2.381,3.38 3.19,4.902 2.089,3.928 3.469,6.523 0.254,15.375 -3.574,9.84 3.22,19.653 6.14,22.603 4.583,4.631 11.132,7.471 13.698,8.465 0.457,3.539 1.941,14.653 3.322,20.837 1.03,4.611 2.858,6.949 5.434,6.949 1.394,0 2.798,-0.775 3.952,-2.181 0.89,-1.085 1.725,-3.095 2.609,-5.224 0.554,-1.332 1.368,-3.292 1.836,-3.944 0.016,-0.001 0.054,-0.002 0.056,-0.002 -0.031,0.173 -0.072,0.383 -0.117,0.626 -0.336,1.779 -0.962,5.091 -1.142,8.457 -0.222,4.158 0.801,6.94 7.21,11.499 3.17,2.256 6.915,3.449 10.83,3.449 4.435,0 8.694,-1.519 12.318,-4.393 6.768,-5.367 12.019,-7.837 13.584,-7.876 h 0.007 c 0.804,0 0.978,0.203 1.321,0.607 0.277,0.325 0.657,0.771 1.296,0.995 0.227,0.08 0.464,0.12 0.705,0.12 0.864,0 1.474,-0.488 1.936,-0.928 0.013,0.024 0.025,0.047 0.037,0.069 0.529,0.989 1.187,2.221 2.592,2.221 0.558,0 1.092,-0.227 1.504,-0.638 l 0.256,-0.263 c 0.815,-0.845 3.296,-3.416 5.406,-3.416 2.314,0.034 4.564,2.538 8.063,8.929 4.236,7.742 9.602,12.417 15.517,13.521 0.305,0.057 0.626,0.085 0.955,0.085 6.332,0 17.161,-11.389 19.268,-13.672 l 6.31,-7.006 c 0.332,-0.369 0.738,-0.424 0.95,-0.424 0.228,0 0.659,0.062 0.982,0.476 1.119,1.433 2.153,3.08 3.077,4.894 2.664,5.238 11.239,19.462 12.208,21.066 l 0.528,0.875 1.067,0.026 c 0.548,0 1.067,-0.24 1.424,-0.656 4.366,-5.049 6.613,-14.859 6.851,-21.834 0.164,-4.844 -0.599,-13.228 -1.069,-17.795 -0.285,-2.784 -0.489,-5.641 -0.604,-8.492 l -0.286,-6.993 c -0.005,-0.146 0.099,-0.268 0.243,-0.282 2.457,-0.247 7.242,-0.815 11.686,-1.837 4.044,-0.93 7.883,-3.301 10.391,-5.126 0.358,-0.26 0.78,-0.398 1.218,-0.398 0.539,0 1.045,0.209 1.425,0.588 3.898,3.894 11.373,10.871 17.663,13.842 2.675,1.265 5.096,1.853 7.617,1.853 2.209,0 4.133,-0.447 6.169,-0.921 2.112,-0.492 4.297,-1.001 6.959,-1.001 0.194,0 0.39,0.003 0.589,0.008 5.249,0.146 6.986,1.258 10.791,3.693 1.838,1.176 4.125,2.64 7.399,4.379 2.843,1.51 6.764,2.308 11.341,2.308 11.005,0 26.383,-4.824 33.067,-12.897 C 6.535,72.145 5.444,64.333 3.256,55.944 L 3.145,55.52 C 1.22,48.138 1.22,48.138 2.47,45.219 3.907,41.867 8.199,30.059 9.323,21.667 10.557,12.448 5.316,4.43 0,0 M 11.117,21.907 C 9.991,30.323 5.851,41.93 4.135,45.933 c -0.719,1.679 -0.776,1.933 -0.747,2.481 0.059,1.085 0.605,3.18 1.51,6.651 l 0.11,0.423 c 2.231,8.553 3.457,17.167 -5.913,28.483 -4.15,5.012 -10.67,8.171 -15.408,9.939 -6.244,2.33 -13.011,3.614 -19.055,3.614 -4.941,0 -9.042,-0.847 -12.19,-2.52 -3.339,-1.773 -5.661,-3.259 -7.525,-4.453 -3.726,-2.384 -5.12,-3.276 -9.866,-3.408 -0.182,-0.005 -0.362,-0.007 -0.539,-0.007 -2.455,0 -4.443,0.463 -6.549,0.953 -2.046,0.476 -4.161,0.969 -6.579,0.969 -2.759,0 -5.504,-0.663 -8.391,-2.027 -6.538,-3.089 -14.189,-10.221 -18.168,-14.197 -0.015,-0.015 -0.059,-0.06 -0.146,-0.06 -0.054,0 -0.105,0.018 -0.152,0.052 -2.646,1.925 -6.711,4.428 -11.05,5.427 -3.78,0.869 -7.789,1.415 -10.468,1.719 l 0.227,5.554 c 0.115,2.827 0.316,5.647 0.597,8.38 0.579,5.635 1.236,13.338 1.076,18.042 -0.256,7.527 -2.611,17.547 -7.296,22.964 -0.703,0.811 -1.718,1.276 -2.788,1.276 -1.279,0 -2.485,-0.681 -3.146,-1.778 -0.968,-1.601 -9.549,-15.825 -12.272,-21.179 -0.757,-1.489 -1.592,-2.854 -2.486,-4.069 l -5.857,6.504 c -3.116,3.376 -13.72,14.285 -20.628,14.287 h -0.003 c -0.438,0 -0.871,-0.039 -1.284,-0.116 -6.467,-1.206 -12.268,-6.196 -16.775,-14.431 -2.93,-5.354 -5.045,-7.967 -6.464,-7.988 h -0.001 c -0.412,0 -1.619,0.279 -4.112,2.863 -0.111,0.115 -0.205,0.212 -0.279,0.286 -0.752,0.752 -1.739,1.167 -2.78,1.168 -1.509,0 -2.51,-0.757 -3.197,-1.602 -0.403,0.146 -0.859,0.239 -1.372,0.239 -0.444,0 -0.882,-0.074 -1.3,-0.22 -1.068,-0.374 -1.696,-1.083 -2.045,-1.491 -1.259,0.194 -5.842,2.24 -12.442,7.474 -3.948,3.13 -8.597,4.784 -13.444,4.784 -4.294,0 -8.402,-1.308 -11.88,-3.783 -5.712,-4.064 -7.881,-7.171 -7.99,-11.755 -0.004,0.005 -0.008,0.01 -0.012,0.015 -1.503,1.834 -3.404,2.844 -5.352,2.844 -2.433,0 -5.657,-1.451 -7.201,-8.365 -1.28,-5.73 -2.641,-15.595 -3.214,-19.949 -3.138,-1.304 -9.035,-4.137 -13.326,-8.474 -3.144,-3.177 -10.45,-13.771 -6.555,-24.495 2.941,-8.095 1.777,-10.283 -0.15,-13.907 -0.757,-1.422 -1.934,-3.094 -3.072,-4.71 -2.472,-3.512 -4.425,-6.285 -4.224,-9.02 0.041,-0.553 0.106,-1.074 0.216,-1.564 -19.46,0.104 -152.867,0.905 -154.307,0.914 l -2.009,0.012 -1.073,-1.698 -53.888,-85.185 h -39.658 -5.927 l 2.704,-5.274 16.29,-31.767 1.017,-1.983 2.229,0.014 306.686,1.945 2.434,0.016 0.905,2.259 11.224,28.026 c 1.877,4.686 1.694,9.981 -0.501,14.526 l -5.315,11.01 19.418,-7.373 0.401,-0.152 0.426,-0.054 c 0.154,-0.02 3.88,-0.484 11.803,-0.484 1.95,0 4.016,0.029 6.14,0.085 9.181,0.241 15.797,0.991 18.593,1.36 2.621,-1.73 9.787,-6.618 14.355,-11.21 1.393,-1.399 3.247,-2.208 5.221,-2.276 l 51.587,-1.774 1.777,-0.061 1.135,1.368 4.423,5.33 1.49,1.795 -1.019,2.099 -10.481,21.588 16.773,-3.546 0.24,-0.051 0.245,-0.018 c 0.184,-0.013 4.564,-0.33 9.834,-0.33 1.979,0 3.841,0.046 5.534,0.136 6.649,0.353 11.313,1.255 15.121,2.926 0.846,0.371 1.559,0.839 2.189,1.252 1.107,0.726 1.679,1.075 2.565,1.075 1.165,0 2.84,-0.618 4.845,-1.789 2.17,-1.267 4.728,-1.909 7.603,-1.909 9.246,0 19.555,6.579 22.59,11.108 3.932,5.866 4.614,11.616 4.427,18.445 -0.076,2.776 1.69,4.202 6.044,7.027 1.613,1.046 3.281,2.129 4.892,3.471 5.687,4.739 11.289,13.348 9.957,23.298"
       style="fill:#ff0000;fill-opacity:1;fill-rule:nonzero;stroke:none"
       transform="matrix(1.3333333,0,0,-1.3333333,775.52853,218.50267)" />
    <path
       id="path110"
       d="m 0,0 c -5.326,-4.438 -12.428,-6.404 -12.237,-13.378 0.19,-6.975 -0.671,-11.639 -3.816,-16.331 -2.478,-3.698 -11.805,-9.502 -19.581,-9.502 -2.093,0 -4.073,0.42 -5.778,1.415 -2.904,1.696 -5.019,2.283 -6.671,2.283 -2.919,0 -4.391,-1.835 -6.208,-2.632 -2.845,-1.248 -6.718,-2.248 -13.858,-2.627 -1.785,-0.094 -3.61,-0.13 -5.342,-0.13 -5.199,0 -9.57,0.32 -9.57,0.32 l -18.09,3.825 c -0.216,0.046 -0.428,0.068 -0.634,0.068 -2.1,0 -3.624,-2.241 -2.644,-4.259 l 11.069,-22.801 -4.423,-5.33 -51.588,1.775 c -1.048,0.036 -2.038,0.467 -2.777,1.211 -5.026,5.051 -12.839,10.312 -15.311,11.929 -0.399,0.262 -0.857,0.397 -1.326,0.397 -0.112,0 -0.224,-0.008 -0.336,-0.023 -2.317,-0.318 -9.046,-1.135 -18.638,-1.388 -2.245,-0.059 -4.256,-0.083 -6.046,-0.083 -7.783,0 -11.344,0.454 -11.344,0.454 l -19.546,7.417 c -0.437,0.166 -0.871,0.242 -1.289,0.242 -2.466,0 -4.386,-2.645 -3.188,-5.127 l 5.374,-11.129 c 1.758,-3.641 1.903,-7.853 0.4,-11.606 l -11.224,-28.025 -306.687,-1.946 -16.29,31.768 h 41.654 l 54.953,86.87 c 0,0 153.956,-0.925 156.653,-0.925 2.696,0 3.561,1.694 2.662,2.766 -0.899,1.072 -1.418,0.346 -1.59,2.697 -0.173,2.351 4.647,7.564 6.881,11.764 2.234,4.199 3.797,7.372 0.357,16.843 -3.44,9.472 3.932,18.899 5.725,20.712 5.452,5.509 14.068,8.419 14.068,8.419 0,0 1.81,14.496 3.432,21.762 0.939,4.203 2.343,5.533 3.666,5.533 0.964,-10e-4 1.885,-0.706 2.553,-1.52 1.583,-1.931 3.631,-9.115 4.983,-9.657 0.299,-0.12 0.609,-0.175 0.91,-0.175 1.058,0 1.994,0.685 1.871,1.644 -0.114,0.884 -1.087,5.108 -1.314,9.347 -0.18,3.367 0.425,5.64 6.451,9.927 2.871,2.043 6.286,3.113 9.781,3.113 3.839,0 7.776,-1.292 11.193,-4.001 6.528,-5.176 12.313,-8.208 14.663,-8.268 0.045,-0.001 0.088,-0.001 0.131,-0.001 2.232,0 2.551,1.5 3.138,1.705 0.034,0.012 0.07,0.018 0.105,0.018 0.576,0 1.328,-1.454 2.235,-1.454 0.017,0 0.034,0 0.051,10e-4 0.888,0.054 1.601,2.816 2.28,2.815 0.075,0 0.149,-0.033 0.223,-0.107 0.742,-0.742 3.801,-4.21 6.943,-4.21 0.021,0 0.042,0.001 0.063,0.001 3.165,0.047 5.762,2.881 9.587,9.87 3.826,6.99 8.69,11.571 14.263,12.609 0.198,0.037 0.406,0.055 0.622,0.055 5.859,-0.001 17.938,-13.089 17.938,-13.089 l 6.294,-6.989 c 0.615,-0.684 1.457,-1.024 2.296,-1.024 0.902,0 1.801,0.393 2.41,1.174 0.973,1.248 2.129,2.959 3.262,5.186 2.682,5.273 11.487,19.862 12.145,20.951 0.011,0.018 0.028,0.026 0.045,0.026 0.017,0 0.035,-0.008 0.048,-0.023 3.98,-4.602 6.181,-13.807 6.416,-20.718 0.16,-4.681 -0.568,-12.774 -1.059,-17.548 -0.294,-2.862 -0.495,-5.729 -0.613,-8.603 l -0.285,-6.993 c -0.045,-1.102 0.773,-2.047 1.871,-2.157 2.539,-0.256 7.161,-0.812 11.462,-1.801 3.762,-0.865 7.394,-3.125 9.731,-4.825 0.686,-0.499 1.486,-0.745 2.283,-0.745 0.985,0 1.963,0.377 2.706,1.119 3.71,3.708 11.077,10.613 17.155,13.485 2.653,1.254 4.837,1.68 6.843,1.68 4.26,-0.001 7.712,-1.923 13.129,-1.923 0.21,0 0.423,0.003 0.639,0.009 8.413,0.234 8.845,2.894 18.99,8.283 2.71,1.44 6.391,2.097 10.491,2.097 C -22.962,92.511 -8.577,87.565 -2.536,80.27 5.706,70.316 4.819,63.278 2.663,55.011 0.507,46.744 0.444,46.666 1.966,43.115 3.487,39.565 7.608,28.088 8.686,20.036 9.764,11.983 5.326,4.438 0,0 m 3.629,43.828 c -1.25,2.919 -1.25,2.919 0.675,10.301 l 0.111,0.424 c 2.188,8.389 3.279,16.201 -5.557,26.872 -6.684,8.073 -22.062,12.897 -33.067,12.897 -4.577,0 -8.498,-0.798 -11.341,-2.308 -3.274,-1.739 -5.561,-3.203 -7.399,-4.379 -3.805,-2.435 -5.542,-3.547 -10.791,-3.693 -0.199,-0.005 -0.395,-0.008 -0.589,-0.008 -2.662,0 -4.847,0.509 -6.959,1.001 -2.037,0.474 -3.96,0.922 -6.169,0.922 -2.521,0 -4.942,-0.589 -7.618,-1.854 -6.289,-2.971 -13.765,-9.948 -17.662,-13.842 -0.38,-0.379 -0.886,-0.588 -1.425,-0.588 -0.438,0 -0.86,0.138 -1.218,0.398 -2.508,1.825 -6.347,4.196 -10.391,5.126 -4.445,1.023 -9.229,1.59 -11.686,1.837 -0.144,0.014 -0.248,0.136 -0.243,0.282 l 0.285,6.993 c 0.116,2.851 0.32,5.708 0.605,8.492 0.47,4.567 1.233,12.952 1.068,17.795 -0.238,6.975 -2.484,16.785 -6.85,21.834 -0.358,0.417 -0.877,0.656 -1.424,0.656 l -1.067,-0.026 -0.528,-0.875 c -0.969,-1.604 -9.545,-15.828 -12.209,-21.066 -0.923,-1.814 -1.957,-3.461 -3.076,-4.893 -0.323,-0.415 -0.754,-0.477 -0.982,-0.477 -0.212,0 -0.618,0.055 -0.951,0.424 l -6.309,7.006 c -2.107,2.283 -12.937,13.672 -19.268,13.672 -0.329,0 -0.65,-0.028 -0.955,-0.085 -5.915,-1.103 -11.281,-5.779 -15.518,-13.52 -3.498,-6.392 -5.749,-8.896 -8.062,-8.93 -2.11,0 -4.591,2.571 -5.406,3.416 l -0.257,0.263 c -0.411,0.411 -0.945,0.638 -1.503,0.638 -1.405,0 -2.064,-1.231 -2.592,-2.221 -0.013,-0.022 -0.024,-0.045 -0.037,-0.069 -0.462,0.44 -1.072,0.928 -1.937,0.928 -0.24,0 -0.477,-0.04 -0.704,-0.12 -0.639,-0.224 -1.019,-0.669 -1.296,-0.995 -0.344,-0.404 -0.517,-0.607 -1.322,-0.607 h -0.006 c -1.566,0.04 -6.816,2.509 -13.584,7.876 -3.625,2.874 -7.884,4.393 -12.318,4.393 -3.915,0 -7.66,-1.193 -10.83,-3.449 -6.41,-4.559 -7.432,-7.341 -7.21,-11.498 0.18,-3.367 0.806,-6.679 1.142,-8.458 0.045,-0.243 0.085,-0.453 0.117,-0.626 -0.002,0 -0.04,0.001 -0.056,0.002 -0.468,0.652 -1.282,2.612 -1.836,3.944 -0.884,2.129 -1.72,4.139 -2.609,5.224 -1.154,1.406 -2.558,2.181 -3.952,2.181 -2.576,0 -4.405,-2.338 -5.435,-6.949 -1.381,-6.184 -2.864,-17.298 -3.322,-20.837 -2.565,-0.994 -9.115,-3.834 -13.697,-8.465 -2.92,-2.95 -9.714,-12.763 -6.14,-22.603 3.215,-8.852 1.835,-11.447 -0.254,-15.375 -0.81,-1.521 -2.019,-3.24 -3.19,-4.902 -2.512,-3.569 -4.044,-5.857 -3.898,-7.845 0.136,-1.858 0.53,-2.701 1.609,-3.411 -0.203,-0.059 -0.49,-0.108 -0.875,-0.108 -2.661,0 -155.103,0.916 -156.642,0.925 l -1.004,0.006 -54.958,-86.876 h -43.619 l 18.15,-35.397 309.018,1.961 11.676,29.155 c 1.689,4.214 1.524,8.978 -0.45,13.066 l -5.373,11.129 c -0.368,0.762 -0.107,1.38 0.081,1.68 0.329,0.524 0.895,0.849 1.476,0.849 0.212,0 0.43,-0.042 0.646,-0.124 l 19.747,-7.493 0.213,-0.028 c 0.149,-0.018 3.761,-0.467 11.563,-0.467 1.936,0 3.99,0.028 6.104,0.084 9.621,0.252 16.378,1.065 18.926,1.409 0.12,0 0.233,-0.035 0.335,-0.101 2.278,-1.491 10.093,-6.741 15.018,-11.693 1.068,-1.071 2.488,-1.69 4,-1.742 l 52.475,-1.805 5.736,6.911 -11.58,23.85 c -0.242,0.5 -0.069,0.908 0.056,1.107 0.216,0.345 0.575,0.551 0.96,0.551 0.084,0 0.171,-0.01 0.258,-0.028 l 18.211,-3.851 0.123,-0.01 c 0.181,-0.013 4.495,-0.324 9.698,-0.324 1.949,0 3.78,0.045 5.442,0.133 6.42,0.342 10.888,1.197 14.49,2.776 0.706,0.31 1.324,0.716 1.922,1.108 1.123,0.736 2.092,1.372 3.558,1.372 1.507,0 3.445,-0.684 5.759,-2.036 1.889,-1.103 4.14,-1.663 6.69,-1.663 8.524,0 18.335,6.203 21.085,10.306 3.665,5.468 4.298,10.906 4.121,17.388 -0.105,3.87 2.542,5.787 6.868,8.594 1.569,1.018 3.191,2.071 4.719,3.344 5.315,4.43 10.557,12.448 9.323,21.667 -1.124,8.392 -5.416,20.2 -6.853,23.552"
       style="fill:#ff0000;fill-opacity:1;fill-rule:nonzero;stroke:none"
       transform="matrix(1.3333333,0,0,-1.3333333,773.9836,216.648)" />
    <path
       id="path111"
       d="M 0,0 H 20.462 L 46.501,69.779 H 9.036 l -55.374,-84.501 h -35.99 l 9.38,-19.285 h 38.842 l 49.742,75.9 z"
       style="fill:#ff0000;fill-opacity:1;fill-rule:nonzero;stroke:none"
       transform="matrix(1.3333333,0,0,-1.3333333,156.86227,303.6664)" />
    <path
       id="path112"
       d="m 0,0 h -15.773 l -6.771,-17.007 h 3.783 c 3.499,0 5.862,-3.571 4.495,-6.792 l -12.105,-28.518 c -0.766,-1.803 -2.536,-2.975 -4.495,-2.975 h -6.921 l -6.178,-15.518 h 21.157 c 4.226,0 8.032,2.555 9.633,6.465 L 8.182,-12.192 C 10.564,-6.375 6.286,0 0,0"
       style="fill:#000000;fill-opacity:1;fill-rule:nonzero;stroke:none"
       transform="matrix(1.3333333,0,0,-1.3333333,292.36173,210.20333)" />
    <path
       id="path113"
       d="m 0,0 h 16.468 l 6.179,15.518 h -0.581 c -6.117,0 -6.52,5.795 -5.153,9.015 l 11.162,26.294 c 0.765,1.804 2.535,2.976 4.495,2.976 h 5.319 L 44.66,70.81 H 25.493 c -5.305,0 -10.084,-3.207 -12.094,-8.117 L -6.227,12.754 C -8.785,6.507 -6.75,0 0,0"
       style="fill:#000000;fill-opacity:1;fill-rule:nonzero;stroke:none"
       transform="matrix(1.3333333,0,0,-1.3333333,206.86427,304.61653)" />
    <path
       id="path114"
       d="M 0,0 H -19.104 L -46.13,-70.504 h 19.104 z"
       style="fill:#000000;fill-opacity:1;fill-rule:nonzero;stroke:none"
       transform="matrix(1.3333333,0,0,-1.3333333,339.80187,210.84453)" />
    <path
       id="path115"
       d="M 0,0 C 1.258,-0.163 2.571,-0.145 3.649,-0.942 4.5,-1.566 5.088,-2.553 5.242,-3.604 5.451,-5.034 4.88,-6.465 4.183,-7.732 2.273,-11.218 -0.824,-14.36 -4.5,-16.098 h -17.818 l -2.78,-7.243 8.167,-31.499 H 3.785 l -6.936,25.722 c 0.208,0.018 0.408,0.046 0.607,0.073 5.034,0.697 9.724,3.078 13.535,6.41 1.503,1.313 2.925,2.725 4.247,4.228 2.852,3.269 5.124,6.999 6.79,11.001 1.531,3.667 2.78,7.524 2.164,11.553 -0.09,0.561 -0.208,1.113 -0.353,1.657 -0.561,2.091 -1.557,4.065 -2.915,5.758 -0.951,1.195 -2.39,1.928 -3.803,2.508 -2.653,1.077 -5.559,1.467 -8.438,1.593 H -9.234 L -15.237,0 Z"
       style="fill:#000000;fill-opacity:1;fill-rule:nonzero;stroke:none"
       transform="matrix(1.3333333,0,0,-1.3333333,358.53773,231.7292)" />
    <path
       id="path116"
       d="m 0,0 c 1.017,2.27 -0.644,4.833 -3.131,4.833 h -15.447 l -2.689,-6.002 H -7.93 l -1.992,-4.437 -1.983,-4.427 -2.29,-5.107 -0.109,-0.235 h -6.582 l 0.099,0.235 2.291,5.107 1.983,4.427 0.959,2.137 h -6.745 l -0.96,-2.137 -1.982,-4.427 -5.025,-11.191 h 15.571 c 3.152,0 6.009,1.852 7.296,4.728 l 0.501,1.121 2.399,5.342 1.983,4.427 1.992,4.437 z"
       style="fill:#000000;fill-opacity:1;fill-rule:nonzero;stroke:none"
       transform="matrix(1.3333333,0,0,-1.3333333,179.30253,320.71013)" />
    <path
       id="path117"
       d="m 0,0 0.154,-4.436 0.127,-3.532 3.078,3.532 3.848,4.4 V 0 L 6.999,6.003 h -7.207 z"
       style="fill:#000000;fill-opacity:1;fill-rule:nonzero;stroke:none"
       transform="matrix(1.3333333,0,0,-1.3333333,183.16733,322.26947)" />
    <path
       id="path118"
       d="M 0,0 5.46,6.003 H -1.811 L -7.27,0 l -2.644,-2.897 -1.394,-1.539 -4.03,-4.428 -1.014,-1.114 -1.819,-4.228 -2.527,-5.849 h 6.537 l 2.517,5.849 1.159,2.68 2.418,2.662 4.029,4.428 z"
       style="fill:#000000;fill-opacity:1;fill-rule:nonzero;stroke:none"
       transform="matrix(1.3333333,0,0,-1.3333333,206.1284,322.26947)" />
    <path
       id="path119"
       d="m 0,0 -2.728,-6.138 -2.064,-4.427 -2.49,-5.342 -2.716,-5.849 h 6.066 l 2.725,5.849 2.49,5.342 0.236,0.507 -0.625,3.92 z"
       style="fill:#000000;fill-opacity:1;fill-rule:nonzero;stroke:none"
       transform="matrix(1.3333333,0,0,-1.3333333,213.06093,320.0012)" />
    <path
       id="path120"
       d="M 0,0 2.771,6.003 H -4.192 L -6.827,0 -8.773,-4.436 -10.448,-8.23 -10.829,-4.436 -11.272,0 -11.879,6.003 H -18.76 L -18.017,0 l 0.615,-4.953 0.489,-3.911 0.67,-5.342 0.725,-5.849 h 6.274 l 2.698,5.849 2.463,5.342 2.037,4.428 z"
       style="fill:#000000;fill-opacity:1;fill-rule:nonzero;stroke:none"
       transform="matrix(1.3333333,0,0,-1.3333333,240.40067,322.26947)" />
    <path
       id="path121"
       d="m 0,0 -2.728,-6.138 -2.064,-4.427 -2.49,-5.342 -2.716,-5.849 h 6.066 l 2.726,5.849 2.489,5.342 0.236,0.507 -0.625,3.92 z"
       style="fill:#000000;fill-opacity:1;fill-rule:nonzero;stroke:none"
       transform="matrix(1.3333333,0,0,-1.3333333,355.96,320.0012)" />
    <path
       id="path122"
       d="m 0,0 2.046,4.436 2.771,6.003 H -2.146 L -4.781,4.436 -6.727,0 -8.402,-3.794 -8.782,0 -9.226,4.436 -9.833,10.439 h -6.881 l 0.743,-6.003 0.615,-4.952 0.489,-3.911 0.67,-5.342 0.724,-5.849 h 6.275 l 2.698,5.849 2.463,5.342 z"
       style="fill:#000000;fill-opacity:1;fill-rule:nonzero;stroke:none"
       transform="matrix(1.3333333,0,0,-1.3333333,380.57187,328.18467)" />
    <path
       id="path123"
       d="m 0,0 -2.728,-6.138 -2.064,-4.427 -2.49,-5.342 -2.716,-5.849 h 6.066 l 2.726,5.849 2.489,5.342 0.236,0.507 -0.625,3.92 z"
       style="fill:#000000;fill-opacity:1;fill-rule:nonzero;stroke:none"
       transform="matrix(1.3333333,0,0,-1.3333333,402.18307,320.0012)" />
    <path
       id="path124"
       d="m 0,0 2.046,4.436 2.771,6.003 H -2.146 L -4.781,4.436 -6.727,0 -8.402,-3.794 -8.782,0 -9.226,4.436 -9.833,10.439 h -6.881 l 0.743,-6.003 0.615,-4.952 0.489,-3.911 0.67,-5.342 0.724,-5.849 h 6.275 l 2.698,5.849 2.463,5.342 z"
       style="fill:#000000;fill-opacity:1;fill-rule:nonzero;stroke:none"
       transform="matrix(1.3333333,0,0,-1.3333333,426.7948,328.18467)" />
    <path
       id="path125"
       d="m 0,0 h 20.752 l 2.77,6.003 H 2.771 Z"
       style="fill:#000000;fill-opacity:1;fill-rule:nonzero;stroke:none"
       transform="matrix(1.3333333,0,0,-1.3333333,292.92613,322.26947)" />
    <path
       id="path126"
       d="M 0,0 -2.037,-4.427 -4.5,-9.769 -7.198,-15.618 H -0.48 L 2.209,-9.769 4.672,-4.427 6.709,0 7.913,2.599 H 1.195 Z"
       style="fill:#000000;fill-opacity:1;fill-rule:nonzero;stroke:none"
       transform="matrix(1.3333333,0,0,-1.3333333,299.3244,328.18467)" />
    <path
       id="path127"
       d="M 0,0 2.463,5.342 4.5,9.769 6.546,14.206 9.317,20.209 H 2.58 L -0.19,14.206 -2.236,9.769 -4.273,5.342 -6.736,0 -6.99,-0.543 c -1.141,-2.481 0.67,-5.306 3.396,-5.306 h 4.3 L 3.024,0 Z"
       style="fill:#000000;fill-opacity:1;fill-rule:nonzero;stroke:none"
       transform="matrix(1.3333333,0,0,-1.3333333,322.78027,341.2104)" />
    <path
       id="path128"
       d="m 0,0 2.046,4.436 2.771,6.003 H -2.082 L -4.853,4.436 -6.899,0 -8.936,-4.427 -11.399,-9.769 h -2.635 l -2.327,-5.849 h 4.998 c 2.535,0 4.844,1.476 5.912,3.784 l 0.951,2.065 2.463,5.342 z"
       style="fill:#000000;fill-opacity:1;fill-rule:nonzero;stroke:none"
       transform="matrix(1.3333333,0,0,-1.3333333,348.61453,328.18467)" />
    <path
       id="path129"
       d="m 0,0 2.046,4.436 2.771,6.003 H -1.476 L -4.237,4.436 -6.283,0 l -2.038,-4.427 -2.462,-5.342 -2.698,-5.849 h 6.283 l 2.698,5.849 2.463,5.342 z"
       style="fill:#000000;fill-opacity:1;fill-rule:nonzero;stroke:none"
       transform="matrix(1.3333333,0,0,-1.3333333,393.462,328.18467)" />
    <path
       id="path130"
       d="m 0,0 -0.326,-0.706 -2.046,-4.437 -2.037,-4.427 -2.463,-5.342 -1.53,-3.323 c -0.543,-1.177 0.317,-2.526 1.611,-2.526 h 4.527 L 8.067,5.288 C 4.59,5.215 1.467,3.169 0,0"
       style="fill:#000000;fill-opacity:1;fill-rule:nonzero;stroke:none"
       transform="matrix(1.3333333,0,0,-1.3333333,434.01213,321.32773)" />
    <path
       id="path131"
       d="M 0,0 H 4.418 L 1.965,-5.342 h -5.197 l -2.318,-5.849 h 8.646 c 1.875,0 3.586,1.096 4.374,2.798 L 8.873,-5.342 11.336,0 13.373,4.427 H 2.037 Z"
       style="fill:#000000;fill-opacity:1;fill-rule:nonzero;stroke:none"
       transform="matrix(1.3333333,0,0,-1.3333333,441.48467,334.08787)" />
    <path
       id="path132"
       d="m 0,0 h 11.644 l 2.77,6.003 H 2.381 Z"
       style="fill:#000000;fill-opacity:1;fill-rule:nonzero;stroke:none"
       transform="matrix(1.3333333,0,0,-1.3333333,444.6836,322.26947)" />
    <path
       id="path133"
       d="m 0,0 h -7.053 l -2.381,-6.003 h 3.694 l -2.046,-4.436 -2.038,-4.428 -2.462,-5.342 h -2.78 l -2.318,-5.848 h 5.125 c 2.435,0 4.645,1.412 5.668,3.63 l 1.023,2.218 2.463,5.342 2.037,4.428 2.046,4.436 1.195,2.608 C 2.906,-1.811 1.747,0 0,0"
       style="fill:#000000;fill-opacity:1;fill-rule:nonzero;stroke:none"
       transform="matrix(1.3333333,0,0,-1.3333333,271.55867,314.2656)" />
    <path
       id="path134"
       d="M 0,0 2.463,5.342 4.5,9.769 6.546,14.206 H 8.42 l 2.381,6.003 H 6.926 c -2.662,0 -5.079,-1.549 -6.193,-3.966 L -0.208,14.206 -2.254,9.769 -4.292,5.342 -6.754,0 c -0.263,-0.57 -0.381,-1.159 -0.381,-1.729 0,-2.173 1.739,-4.12 4.12,-4.12 H 0.471 L 2.789,0 Z"
       style="fill:#000000;fill-opacity:1;fill-rule:nonzero;stroke:none"
       transform="matrix(1.3333333,0,0,-1.3333333,244.66213,341.2104)" />
    <path
       id="path135"
       d="M 0,0 C 0.402,0 0.633,0.458 0.393,0.781 L -0.182,1.557 C -0.68,2.229 -1.468,2.626 -2.304,2.626 H -5.557 L -4.878,0 Z"
       style="fill:#000000;fill-opacity:1;fill-rule:nonzero;stroke:none"
       transform="matrix(1.3333333,0,0,-1.3333333,447.37307,290.80973)" />
    <path
       id="path136"
       d="M 0,0 5.776,-7.298 6.754,-0.978 6.908,0 h 3.595 L 16.315,-7.352 17.447,0 h 3.585 l -1.72,-11.136 -0.299,-1.884 h -2.725 l -0.715,0.897 -5.822,7.361 -0.978,-6.329 -0.298,-1.929 H 5.786 L 5.043,-12.069 -4.509,0 Z m 25.805,0 h 2.788 l 1.34,-5.152 h 4.952 L 33.545,0 h 3.41 c 0.546,0 1.023,-0.369 1.16,-0.897 l 2.763,-10.622 c 0.197,-0.759 -0.376,-1.501 -1.16,-1.501 h -2.787 l -1.222,4.699 h -4.953 l 1.214,-4.699 h -3.409 c -0.547,0 -1.024,0.37 -1.161,0.898 L 24.645,-1.5 c -0.197,0.759 0.376,1.5 1.16,1.5 m 27.55,0 c 1.46,0 2.746,-0.962 3.159,-2.363 l 1.577,-5.359 c 0.301,-1.022 -0.453,-2.05 -1.518,-2.071 l -7.111,-0.139 0.806,-3.088 H 45.542 L 42.156,0 Z M -4.959,-16.174 H 65.662 L 60.225,3.693 h -70.621 z"
       style="fill:#000000;fill-opacity:1;fill-rule:nonzero;stroke:none"
       transform="matrix(1.3333333,0,0,-1.3333333,376.2352,282.6008)" />
    <path
       id="path137"
       d="M 0,0 C 7.458,2.493 21.551,10.252 23.109,33.47 24.137,48.794 13.823,58.182 7.74,62.344 6.881,62.932 5.857,61.883 6.461,61.035 10.539,55.308 17.245,43.881 16.434,31.559 15.467,16.87 6.264,7.219 -0.864,1.611 -1.68,0.969 -0.985,-0.329 0,0"
       style="fill:#acadb1;fill-opacity:1;fill-rule:nonzero;stroke:none"
       transform="matrix(1.3333333,0,0,-1.3333333,520.6872,224.42013)" />
    <path
       id="path138"
       d="m 0,0 c 0,0 10.572,3.766 17.954,16.109 7.383,12.343 3.974,29.309 -6.387,42.509 -10.361,13.2 -25.76,12.206 -25.76,12.206 l 2.152,-2.898 C -4.53,66.183 0.921,62.797 6.972,56.44 13.022,50.083 15.482,43.746 15.088,31.762 14.693,19.778 9.027,10.204 -5.281,2.516 -11.409,-0.776 -16.87,-1.653 -21.128,-1.586 l -1.92,-2.032 C -11.242,-4.343 -0.168,1.674 8.09,9.297 18.238,18.664 18.877,33.354 18.877,33.354 21.006,14.548 0,0 0,0"
       style="fill:#acadb1;fill-opacity:1;fill-rule:nonzero;stroke:none"
       transform="matrix(1.3333333,0,0,-1.3333333,511.15733,222.34653)" />
    <path
       id="path139"
       d="M 0,0 C -3.255,0.411 -5.409,1.283 -6.068,1.545 L -6.512,1.152 C -6.759,0.493 -7.096,-0.625 -7.096,-0.625 -5.225,-1.259 -3.36,-1.701 -1.51,-1.972 -0.989,-1.291 -0.484,-0.631 0,0"
       style="fill:#acadb1;fill-opacity:1;fill-rule:nonzero;stroke:none"
       transform="matrix(1.3333333,0,0,-1.3333333,478.96067,224.18027)" />
    <path
       id="path140"
       d="m 0,0 4.428,-0.282 c 0.386,2.37 0.994,4.755 1.854,7.091 L 2.25,7.991 C 1.148,5.332 0.411,2.659 0,0"
       style="fill:#acadb1;fill-opacity:1;fill-rule:nonzero;stroke:none"
       transform="matrix(1.3333333,0,0,-1.3333333,435.63267,169.9464)" />
    <path
       id="path141"
       d="m 0,0 2.516,-2.394 c 1.757,0.853 3.651,1.601 5.698,2.221 L 6.241,2.664 C 4.293,2.002 2.175,1.135 0,0"
       style="fill:#acadb1;fill-opacity:1;fill-rule:nonzero;stroke:none"
       transform="matrix(1.3333333,0,0,-1.3333333,462.886,133.02307)" />
    <path
       id="path142"
       d="M 0,0 C -0.097,-0.016 -0.201,-0.035 -0.302,-0.053 L 1.481,-2.692 C 1.751,-1.723 1.388,0.234 0,0"
       style="fill:#acadb1;fill-opacity:1;fill-rule:nonzero;stroke:none"
       transform="matrix(1.3333333,0,0,-1.3333333,480.39427,127.13387)" />
    <path
       id="path143"
       d="M 0,0 C -0.397,1.199 -0.733,2.464 -1.006,3.783 -2.209,3.571 -3.444,3.354 -4.702,3.133 -4.301,1.706 -3.82,0.298 -3.25,-1.082 -2.131,-0.709 -1.045,-0.347 0,0"
       style="fill:#acadb1;fill-opacity:1;fill-rule:nonzero;stroke:none"
       transform="matrix(1.3333333,0,0,-1.3333333,443.13107,193.44933)" />
    <path
       id="path144"
       d="m 0,0 2.809,-2.066 c 1.455,1.124 3.047,2.158 4.787,3.081 L 5.314,3.498 C 3.548,2.522 1.757,1.369 0,0"
       style="fill:#acadb1;fill-opacity:1;fill-rule:nonzero;stroke:none"
       transform="matrix(1.3333333,0,0,-1.3333333,454.59373,138.33613)" />
    <path
       id="path145"
       d="M 0,0 C 0.726,0.598 1.433,1.181 2.121,1.747 1.26,2.31 -0.457,3.658 -2.402,5.763 L -4.794,4.506 C -3.313,2.913 -1.707,1.41 0,0"
       style="fill:#acadb1;fill-opacity:1;fill-rule:nonzero;stroke:none"
       transform="matrix(1.3333333,0,0,-1.3333333,456.5084,218.28347)" />
    <path
       id="path146"
       d="M 0,0 C -0.601,1.078 -1.17,2.231 -1.687,3.46 L -4.824,2.565 c 0.636,-1.298 1.337,-2.571 2.113,-3.81 C -1.779,-0.817 -0.873,-0.401 0,0"
       style="fill:#acadb1;fill-opacity:1;fill-rule:nonzero;stroke:none"
       transform="matrix(1.3333333,0,0,-1.3333333,446.6352,201.40107)" />
    <path
       id="path147"
       d="M 0,0 C -0.699,0.87 -1.405,1.83 -2.091,2.879 L -4.775,1.803 c 0.766,-1.088 1.585,-2.148 2.454,-3.178 z"
       style="fill:#acadb1;fill-opacity:1;fill-rule:nonzero;stroke:none"
       transform="matrix(1.3333333,0,0,-1.3333333,451.1592,208.11373)" />
    <path
       id="path148"
       d="m 0,0 c -0.823,-1.35 -1.532,-2.709 -2.157,-4.073 1.373,-0.329 2.73,-0.654 4.052,-0.972 0.964,2.304 2.183,4.543 3.689,6.651 L 2.346,3.423 C 1.529,2.354 0.742,1.218 0,0"
       style="fill:#acadb1;fill-opacity:1;fill-rule:nonzero;stroke:none"
       transform="matrix(1.3333333,0,0,-1.3333333,442.24173,152.20333)" />
    <path
       id="path149"
       d="M 0,0 C 1.657,0.469 3.398,0.866 5.248,1.165 5.322,1.177 5.386,1.224 5.444,1.287 4.78,2.417 4.175,3.446 3.677,4.294 2.099,4.008 0.059,3.541 -2.244,2.787 Z"
       style="fill:#acadb1;fill-opacity:1;fill-rule:nonzero;stroke:none"
       transform="matrix(1.3333333,0,0,-1.3333333,474.8428,132.97293)" />
    <path
       id="path150"
       d="M 0,0 C 1.324,0.275 2.612,0.541 3.848,0.796 3.651,2.261 3.535,3.788 3.531,5.385 3.526,6.95 3.619,8.554 3.807,10.173 l -4.386,0.474 C -0.955,7.039 -0.742,3.467 0,0"
       style="fill:#acadb1;fill-opacity:1;fill-rule:nonzero;stroke:none"
       transform="matrix(1.3333333,0,0,-1.3333333,436.12267,186.33)" />
    <path
       id="path151"
       d="M 0,0 3.345,-1.595 C 4.21,-0.577 5.15,0.402 6.172,1.332 L 3.414,3.452 C 2.243,2.41 1.099,1.26 0,0"
       style="fill:#acadb1;fill-opacity:1;fill-rule:nonzero;stroke:none"
       transform="matrix(1.3333333,0,0,-1.3333333,447.45147,145.0964)" />
    <path
       id="path152"
       d="m 0,0 -4.532,11.551 c -2.223,0.449 -4.695,0.7 -7.323,0.553 L -3.826,0.218 C -2.536,0.223 -1.257,0.154 0,0"
       style="fill:#acadb1;fill-opacity:1;fill-rule:nonzero;stroke:none"
       transform="matrix(1.3333333,0,0,-1.3333333,499.96267,149.50907)" />
    <path
       id="path153"
       d="M 0,0 6.929,4.104 C 6.565,4.651 6.239,5.211 5.962,5.786 L -1.936,2.621 C -1.678,2.232 -1.431,1.87 -1.217,1.561 -0.9,1.103 -0.49,0.574 0,0"
       style="fill:#acadb1;fill-opacity:1;fill-rule:nonzero;stroke:none"
       transform="matrix(1.3333333,0,0,-1.3333333,453.3892,206.79293)" />
    <path
       id="path154"
       d="m 0,0 c -0.882,-2.131 -1.538,-4.362 -1.924,-6.667 l 12.185,-0.777 c 0.517,1.297 1.157,2.59 1.927,3.873 z"
       style="fill:#acadb1;fill-opacity:1;fill-rule:nonzero;stroke:none"
       transform="matrix(1.3333333,0,0,-1.3333333,446.45427,161.58387)" />
    <path
       id="path155"
       d="M 0,0 C -1.044,0.846 -2.042,1.758 -2.938,2.73 L -9.927,-0.945 C -8.742,-2.102 -7.294,-3.34 -5.569,-4.551 -3.096,-2.519 -1.083,-0.871 0,0"
       style="fill:#acadb1;fill-opacity:1;fill-rule:nonzero;stroke:none"
       transform="matrix(1.3333333,0,0,-1.3333333,468.9952,208.04933)" />
    <path
       id="path156"
       d="m 0,0 -11.637,1.258 c -0.374,-3.254 -0.301,-6.192 0.063,-8.819 5.116,1.053 9.11,1.865 10.662,2.179 C -0.813,-3.604 -0.517,-1.805 0,0"
       style="fill:#acadb1;fill-opacity:1;fill-rule:nonzero;stroke:none"
       transform="matrix(1.3333333,0,0,-1.3333333,459.06387,174.6972)" />
    <path
       id="path157"
       d="M 0,0 C -0.238,0.678 -0.459,1.364 -0.646,2.064 L -9.75,-0.534 c 0.523,-1.189 1.071,-2.25 1.605,-3.181 C -4.348,-1.977 -1.376,-0.625 0,0"
       style="fill:#acadb1;fill-opacity:1;fill-rule:nonzero;stroke:none"
       transform="matrix(1.3333333,0,0,-1.3333333,459.8264,195.37893)" />
    <path
       id="path158"
       d="M 0,0 C -0.104,0.729 -0.184,1.465 -0.225,2.208 -2.869,1.736 -6.433,1.101 -10.459,0.39 -10.187,-0.864 -9.857,-2.037 -9.486,-3.125 -4.999,-1.638 -1.504,-0.492 0,0"
       style="fill:#acadb1;fill-opacity:1;fill-rule:nonzero;stroke:none"
       transform="matrix(1.3333333,0,0,-1.3333333,458.13253,188.5024)" />
    <path
       id="path159"
       d="m 0,0 5.011,-11.554 c 1.078,-0.184 2.128,-0.437 3.151,-0.743 L 4.366,-1.332 C 3.088,-0.845 1.618,-0.374 0,0"
       style="fill:#acadb1;fill-opacity:1;fill-rule:nonzero;stroke:none"
       transform="matrix(1.3333333,0,0,-1.3333333,495.0788,134.3576)" />
    <path
       id="path160"
       d="m 0,0 9.072,-11.264 c 1.082,0.171 2.169,0.3 3.257,0.36 C 11.227,-9.037 8.026,-3.593 5.341,0.975 4.049,0.874 2.724,0.682 1.374,0.364 0.915,0.255 0.457,0.131 0,0"
       style="fill:#acadb1;fill-opacity:1;fill-rule:nonzero;stroke:none"
       transform="matrix(1.3333333,0,0,-1.3333333,476.25627,134.72773)" />
    <path
       id="path161"
       d="M 0,0 -9.29,10.105 C -10.788,9.236 -12.236,8.249 -13.613,7.154 L -2.373,-1.11 C -1.604,-0.703 -0.811,-0.336 0,0"
       style="fill:#acadb1;fill-opacity:1;fill-rule:nonzero;stroke:none"
       transform="matrix(1.3333333,0,0,-1.3333333,478.8904,152.39413)" />
    <path
       id="path162"
       d="m 0,0 10.425,-9.918 c 0.894,0.286 1.8,0.533 2.719,0.739 L 5.224,2.208 C 3.445,1.638 1.695,0.894 0,0"
       style="fill:#acadb1;fill-opacity:1;fill-rule:nonzero;stroke:none"
       transform="matrix(1.3333333,0,0,-1.3333333,468.13707,138.01867)" />
    <path
       id="path163"
       d="m 0,0 0.463,0.707 c 0,0 -1.563,0.637 -3.773,1.796 l -4.627,-4.088 c 1.71,-0.629 3.543,-1.166 5.506,-1.57 C -1.448,-1.874 -0.608,-0.784 0,0"
       style="fill:#acadb1;fill-opacity:1;fill-rule:nonzero;stroke:none"
       transform="matrix(1.3333333,0,0,-1.3333333,483.69573,218.02533)" />
    <path
       id="path164"
       d="m 0,0 c -1.062,0.62 -2.186,1.326 -3.308,2.11 l -5.623,-4.291 c 1.376,-0.835 2.882,-1.63 4.529,-2.346 z"
       style="fill:#acadb1;fill-opacity:1;fill-rule:nonzero;stroke:none"
       transform="matrix(1.3333333,0,0,-1.3333333,476.28427,213.02613)" />
    <path
       id="path165"
       d="M 0,0 C 0.375,0.466 0.784,0.902 1.197,1.334 L -10.195,7.729 C -11.621,5.854 -12.868,3.835 -13.883,1.7 -8.015,0.289 -3.094,-0.908 -1.071,-1.43 -0.729,-0.952 -0.381,-0.474 0,0"
       style="fill:#acadb1;fill-opacity:1;fill-rule:nonzero;stroke:none"
       transform="matrix(1.3333333,0,0,-1.3333333,465.86173,161.81693)" />
    <path
       id="path166"
       d="m 0,0 -1.867,9.63 c 0,0 -1.62,1.087 -4.329,2.222 L -1.806,0.764 C -1.19,0.531 -0.584,0.281 0,0"
       style="fill:#acadb1;fill-opacity:1;fill-rule:nonzero;stroke:none"
       transform="matrix(1.3333333,0,0,-1.3333333,510.55347,152.49307)" />
    <path
       id="path167"
       d="m 0,0 12.573,-5.996 c 0.181,0.133 0.357,0.274 0.543,0.403 L 2.52,2.553 C 1.642,1.745 0.799,0.894 0,0"
       style="fill:#acadb1;fill-opacity:1;fill-rule:nonzero;stroke:none"
       transform="matrix(1.3333333,0,0,-1.3333333,454.70093,148.55387)" />
    <path
       id="path168"
       d="m 0,0 c -4.241,-0.74 -8.624,-1.498 -12.747,-2.198 0.367,-2.181 0.873,-4.445 1.528,-6.761 4.108,1.412 8.408,2.865 12.451,4.22 C 0.706,-3.168 0.296,-1.586 0,0"
       style="fill:#ff0000;fill-opacity:1;fill-rule:nonzero;stroke:none"
       transform="matrix(1.3333333,0,0,-1.3333333,433.0968,189.93027)" />
    <path
       id="path169"
       d="m 0,0 -12.684,7.12 c -1.789,-3.326 -3.562,-7.345 -5.002,-12.056 4.004,-0.953 8.716,-2.076 13.357,-3.186 C -3.087,-5.159 -1.606,-2.423 0,0"
       style="fill:#ff0000;fill-opacity:1;fill-rule:nonzero;stroke:none"
       transform="matrix(1.3333333,0,0,-1.3333333,442.95147,146.2816)" />
    <path
       id="path170"
       d="m 0,0 -13.05,3.823 c -1.016,-3.42 -1.848,-7.198 -2.384,-11.33 l 13.01,-0.83 C -1.861,-5.439 -1.03,-2.641 0,0"
       style="fill:#ff0000;fill-opacity:1;fill-rule:nonzero;stroke:none"
       transform="matrix(1.3333333,0,0,-1.3333333,436.55227,158.68253)" />
    <path
       id="path171"
       d="m 0,0 -13.646,-7.175 c 1.713,-2.925 3.681,-5.82 5.924,-8.632 2.832,2.344 8.105,6.706 13.172,10.886 C 3.574,-3.511 1.748,-1.877 0,0"
       style="fill:#ff0000;fill-opacity:1;fill-rule:nonzero;stroke:none"
       transform="matrix(1.3333333,0,0,-1.3333333,445.84893,214.51947)" />
    <path
       id="path172"
       d="m 0,0 -12.864,1.39 c -0.295,-2.542 -0.477,-5.214 -0.517,-8.018 -0.034,-2.299 0.124,-4.795 0.488,-7.427 4.144,0.888 8.52,1.808 12.668,2.672 C -0.708,-7.538 -0.585,-3.702 0,0"
       style="fill:#ff0000;fill-opacity:1;fill-rule:nonzero;stroke:none"
       transform="matrix(1.3333333,0,0,-1.3333333,432.94867,171.87453)" />
    <path
       id="path173"
       d="m 0,0 c -0.672,2.269 -2.027,3.992 -4.312,4.79 -0.727,0.254 -1.473,0.372 -2.215,0.372 -1.773,0 -3.528,-0.67 -4.962,-1.751 -0.567,-0.428 -1.088,-0.916 -1.556,-1.45 -2.489,-2.834 -4.016,-6.595 -1.996,-10.147 1.543,-2.711 4.389,-4.723 7.352,-5.606 0.854,-0.254 1.752,-0.398 2.643,-0.398 0.933,0 1.86,0.158 2.724,0.51 1.65,0.674 2.806,2.168 3.319,3.844 0.6,1.958 0.149,3.842 -0.161,5.804 C 0.621,-2.67 0.395,-1.334 0,0"
       style="fill:#ff0000;fill-opacity:1;fill-rule:nonzero;stroke:none"
       transform="matrix(1.3333333,0,0,-1.3333333,575.79453,233.46187)" />
    <path
       id="path174"
       d="m 0,0 c -0.714,-2.33 -2.305,-4.148 -4.366,-4.99 -1.047,-0.428 -2.194,-0.645 -3.408,-0.645 -1.043,0 -2.106,0.16 -3.161,0.474 -3.574,1.064 -6.717,3.474 -8.408,6.446 -2.134,3.75 -1.329,8.21 2.209,12.237 0.556,0.634 1.171,1.206 1.826,1.7 1.81,1.365 3.959,2.117 6.052,2.117 0.969,0 1.915,-0.159 2.813,-0.473 2.684,-0.938 4.569,-3.008 5.451,-5.986 C -0.567,9.444 -0.33,8.044 -0.104,6.616 -0.066,6.374 -0.025,6.132 0.015,5.891 0.312,4.123 0.649,2.118 0,0 M 2.001,6.417 C 0.118,16.984 0.432,27.864 0.432,27.864 c 0,0 -22.893,-11.452 -35.494,-12.84 -12.601,-1.388 -25.902,-0.511 -29.614,-1.469 0,0 2.767,-0.852 6.245,-1.952 0,0 -8.42,-1.799 -18.812,0.319 l -11.62,-12.301 c 0,0 4.971,6.533 9.705,12.732 -2.28,0.562 -4.63,1.326 -6.992,2.341 L -99.688,2.732 -87.48,15.287 c -1.847,0.869 -3.691,1.899 -5.504,3.119 L -107.033,7.685 c 18.496,-22.3 54.623,-38.751 117.404,-20.832 0,0 -6.487,8.998 -8.37,19.564"
       style="fill:#ff0000;fill-opacity:1;fill-rule:nonzero;stroke:none"
       transform="matrix(1.3333333,0,0,-1.3333333,579.43267,247.2832)" />
    <path
       id="path175"
       d="m 0,0 13.367,-6.375 c 1.118,1.51 2.278,2.861 3.445,4.032 L 4.644,7.012 C 3.29,5.274 1.658,2.935 0,0"
       style="fill:#ff0000;fill-opacity:1;fill-rule:nonzero;stroke:none"
       transform="matrix(1.3333333,0,0,-1.3333333,426.86907,135.28027)" />
    <path
       id="path176"
       d="m 0,0 -12.789,-3.65 c 0.669,-2.152 1.471,-4.344 2.403,-6.549 4.082,1.921 8.457,3.953 12.549,5.84 C 1.325,-2.925 0.606,-1.47 0,0"
       style="fill:#ff0000;fill-opacity:1;fill-rule:nonzero;stroke:none"
       transform="matrix(1.3333333,0,0,-1.3333333,435.84947,199.22413)" />
    <path
       id="path177"
       d="m 0,0 c 0,0 -9.261,3.939 -14.317,9.048 0,0 -0.787,-0.724 -2.02,-2.167 L -3.672,-2.43 C -2.421,-1.384 -1.182,-0.553 0,0"
       style="fill:#ff0000;fill-opacity:1;fill-rule:nonzero;stroke:none"
       transform="matrix(1.3333333,0,0,-1.3333333,456.58667,132.9608)" />
    <path
       id="path178"
       d="m 0,0 c -0.429,0.57 -0.823,1.147 -1.21,1.726 l -13.148,-5.27 c 0.893,-2.001 1.898,-4.009 3.021,-6.008 L 1.54,-1.925 C 1.018,-1.307 0.504,-0.668 0,0"
       style="fill:#ff0000;fill-opacity:1;fill-rule:nonzero;stroke:none"
       transform="matrix(1.3333333,0,0,-1.3333333,441.89253,209.81987)" />
    <path
       id="path179"
       d="m 0,0 c -4.09,18.035 -3.084,25.409 -3.084,25.409 0,0 -3.352,-1.81 -3.151,-14.883 0,0 -1.475,3.017 -1.81,12.134 0,0 -3.956,-3.553 -2.078,-17.095 0,0 -2.384,1.791 -1.829,16.717 0.009,0.239 -11.082,-4.863 -11.082,-4.863 0,0 -2.233,-14.112 1.435,-25.752 3.667,-11.64 10.843,-19.135 10.843,-19.135 l 14.829,3.987 c 0,0 -11.835,10.843 -13.89,26.31 0,0 2.728,-9.488 6.954,-12.438 0,0 -2.631,13.713 -2.791,15.467 0,0 4.465,-14.669 7.176,-19.294 2.711,-4.624 6.09,-8.382 10.719,-6.893 0,0 -8.151,2.294 -12.241,20.329"
       style="fill:#ff0000;fill-opacity:1;fill-rule:nonzero;stroke:none"
       transform="matrix(1.3333333,0,0,-1.3333333,614.0156,229.2392)" />
    <path
       id="path180"
       d="M 0,0 C -0.033,0.147 -0.07,0.292 -0.104,0.439 L -7.621,-3.76 c 1.478,-3.902 3.266,-7.689 5.789,-11.034 0.637,-0.844 2.362,-3.229 3.318,-1.459 1.066,1.972 0.228,5.409 -0.014,7.514 C 1.135,-5.803 0.643,-2.885 0,0"
       style="fill:#ff0000;fill-opacity:1;fill-rule:nonzero;stroke:none"
       transform="matrix(1.3333333,0,0,-1.3333333,628.062,229.50067)" />
    <path
       id="path181"
       d="M 0,0 C 0.247,-0.844 0.506,-1.684 0.785,-2.515 0.941,-2.979 1.102,-3.442 1.264,-3.904 2.598,-3.169 5.837,-1.39 9.036,0.367 8.689,1.706 8.312,3.037 7.901,4.358 Z"
       style="fill:#ff0000;fill-opacity:1;fill-rule:nonzero;stroke:none"
       transform="matrix(1.3333333,0,0,-1.3333333,615.0996,226.224)" />
    <path
       id="path182"
       d="m 0,0 c -0.099,-0.132 -0.195,-0.29 -0.288,-0.475 -0.48,-0.961 -0.5,-2.182 -0.485,-3.334 0.887,0.609 2.354,1.559 3.921,2.56 C 2.109,0.24 0.925,1.233 0,0"
       style="fill:#ff0000;fill-opacity:1;fill-rule:nonzero;stroke:none"
       transform="matrix(1.3333333,0,0,-1.3333333,613.2844,199.7148)" />
    <path
       id="path183"
       d="M 0,0 C 1.139,0.812 3.801,2.656 6.425,4.46 6.258,4.84 6.096,5.22 5.924,5.597 5.734,6.014 5.315,6.957 4.77,7.979 L -0.299,4.578 C -0.283,3.047 -0.181,1.519 0,0"
       style="fill:#ff0000;fill-opacity:1;fill-rule:nonzero;stroke:none"
       transform="matrix(1.3333333,0,0,-1.3333333,612.66493,214.5844)" />
    <path
       id="path184"
       d="M 0,0 C 1.347,0.803 4.555,2.67 7.681,4.484 7.265,5.67 6.825,6.847 6.357,8.013 3.472,6.14 0.451,4.194 -0.734,3.479 -0.531,2.312 -0.28,1.152 0,0"
       style="fill:#ff0000;fill-opacity:1;fill-rule:nonzero;stroke:none"
       transform="matrix(1.3333333,0,0,-1.3333333,614.13,222.59027)" />
    <path
       id="path185"
       d="M 0,0 C -0.55,1.576 -1.065,2.915 -1.469,3.711 -2.32,3.156 -3.313,2.509 -4.351,1.834 -4.053,0.977 -3.611,-0.307 -3.109,-1.801 -2.012,-1.165 -0.947,-0.548 0,0"
       style="fill:#ff0000;fill-opacity:1;fill-rule:nonzero;stroke:none"
       transform="matrix(1.3333333,0,0,-1.3333333,629.52333,213.62693)" />
    <path
       id="path186"
       d="M 0,0 C 1.095,0.601 2.16,1.186 3.12,1.713 2.736,2.972 2.313,4.33 1.884,5.659 L -1.255,3.928 C -0.831,2.634 -0.4,1.293 0,0"
       style="fill:#ff0000;fill-opacity:1;fill-rule:nonzero;stroke:none"
       transform="matrix(1.3333333,0,0,-1.3333333,628.32293,225.08987)" />
    <path
       id="path187"
       d="M 0,0 C 0.332,-1.142 0.616,-2.185 0.814,-3.035 L 4.027,-1.4 c 0,0 -0.364,1.283 -0.915,3.138 z"
       style="fill:#ff0000;fill-opacity:1;fill-rule:nonzero;stroke:none"
       transform="matrix(1.3333333,0,0,-1.3333333,629.25093,228.1736)" />
    <path
       id="path188"
       d="m 0,0 c -1.695,4.103 -4.594,4.594 -5.397,4.014 0,0 2.855,-7.136 3.479,-9.901 0,0 3.613,1.784 1.918,5.887"
       style="fill:#ff0000;fill-opacity:1;fill-rule:nonzero;stroke:none"
       transform="matrix(1.3333333,0,0,-1.3333333,588.5984,140.79267)" />
    <path
       id="path189"
       d="m 0,0 c 0,0 -3.716,6.764 -4.216,10.242 -0.5,3.477 0.929,5.859 0.929,5.859 0,0 -4.408,7.883 -6.907,8.718 -1.636,0.547 -1.469,-19.601 1.762,-29.106 z"
       style="fill:#ff0000;fill-opacity:1;fill-rule:nonzero;stroke:none"
       transform="matrix(1.3333333,0,0,-1.3333333,609.61707,188.47373)" />
    <path
       id="path190"
       d="M 0,0 C 0.223,-0.056 6.596,1.875 6.596,1.875 L 4.603,36.158 C 4.564,36.832 3.636,36.973 3.393,36.342 2.519,34.078 1.397,30.477 1.229,26.594 0.95,20.113 0,0 0,0"
       style="fill:#ff0000;fill-opacity:1;fill-rule:nonzero;stroke:none"
       transform="matrix(1.3333333,0,0,-1.3333333,585.8736,197.86)" />
    <path
       id="path191"
       d="M 0,0 C 0,0 9.1,-12.931 9.354,-27.379 9.588,-40.68 1.159,-55.357 -2.69,-60.359 c 0,0 10.37,2.863 18.573,5.726 8.203,2.864 14.421,7.309 16.019,9.674 0,0 -2.786,30.103 -3.405,36.913 0,0 1.863,-2.94 2.402,-8.667 0.539,-5.727 0.582,-8.437 2.263,-8.746 0,0 0.585,10.438 -0.782,17.413 -1.368,6.976 -6.548,15.688 -6.548,15.688 l -3.598,-2.308 0.288,7.374 c 0,0 -3.511,-5.82 -7.224,-8.288 0,0 6.073,6.814 5.569,11.491 -0.504,4.677 -2.591,1.367 -2.591,1.367 C 18.276,17.278 12.736,5.747 0,0"
       style="fill:#ff0000;fill-opacity:1;fill-rule:nonzero;stroke:none"
       transform="matrix(1.3333333,0,0,-1.3333333,541.2076,141.0664)" />
    <path
       id="path192"
       d="m 0,0 v 3.511 l -19.646,0.4 c 0,0 -2.8,-1.422 -2.978,-1.422 z"
       style="fill:#ff0000;fill-opacity:1;fill-rule:nonzero;stroke:none"
       transform="matrix(1.3333333,0,0,-1.3333333,617.87307,277.0452)" />
    <path
       id="path193"
       d="m 0,0 10.09,-12.52 0.84,0.279 v 2.184 L 0.371,2.794 C 0.33,2.224 0,0 0,0"
       style="fill:#ff0000;fill-opacity:1;fill-rule:nonzero;stroke:none"
       transform="matrix(1.3333333,0,0,-1.3333333,620.6644,278.16253)" />
    <path
       id="path194"
       d="m 0,0 -32.309,1.443 0.15,3.373 32.31,-1.443 z m -38.681,7.918 0.151,3.373 32.309,-1.444 -0.151,-3.372 z m 1.522,6.588 -9.044,-3.717 c -0.071,-0.285 11.945,-11.536 11.945,-11.536 L 5.356,-1.673 -3.991,11.216 Z"
       style="fill:#ff0000;fill-opacity:1;fill-rule:nonzero;stroke:none"
       transform="matrix(1.3333333,0,0,-1.3333333,623.19493,294.31067)" />
    <path
       id="path195"
       d="m 0,0 c -0.513,-1.676 -1.669,-3.17 -3.319,-3.844 -0.864,-0.353 -1.791,-0.51 -2.724,-0.51 -0.892,0 -1.79,0.143 -2.644,0.398 -2.963,0.882 -5.808,2.895 -7.351,5.606 -2.021,3.552 -0.493,7.313 1.995,10.147 0.469,0.533 0.99,1.022 1.557,1.449 1.434,1.081 3.188,1.751 4.962,1.751 0.742,0 1.488,-0.117 2.214,-0.371 2.286,-0.799 3.641,-2.521 4.313,-4.79 0.395,-1.335 0.621,-2.67 0.836,-4.033 C 0.149,3.842 0.6,1.958 0,0 M 1.627,6.086 C 1.402,7.514 1.164,8.914 0.739,10.35 c -0.882,2.978 -2.767,5.047 -5.451,5.986 -0.898,0.313 -1.844,0.472 -2.812,0.472 -2.093,0 -4.243,-0.751 -6.052,-2.116 -0.656,-0.494 -1.27,-1.066 -1.827,-1.7 -3.537,-4.027 -4.342,-8.488 -2.209,-12.237 1.691,-2.972 4.834,-5.382 8.409,-6.447 1.054,-0.314 2.118,-0.473 3.16,-0.473 1.214,0 2.361,0.217 3.409,0.645 2.06,0.841 3.652,2.66 4.365,4.99 C 2.38,1.588 2.044,3.592 1.747,5.361 1.706,5.602 1.666,5.843 1.627,6.086"
       style="fill:#000000;fill-opacity:1;fill-rule:nonzero;stroke:none"
       transform="matrix(1.3333333,0,0,-1.3333333,577.124,246.576)" />
    <path
       id="path196"
       d="m 0,0 c 9.617,21.047 1.892,34.763 -15.135,36.26 -17.027,1.498 -27.038,-13.164 -27.038,-13.164 1.985,0.945 20.818,6.679 32.485,-0.944 11.666,-7.623 2.916,-26.647 2.916,-26.647 17.698,-4.839 12.684,-16.946 12.684,-16.946 1.892,1.261 3.862,5.281 3.39,10.09 C 8.829,-6.543 0,0 0,0"
       style="fill:#000000;fill-opacity:1;fill-rule:nonzero;stroke:none"
       transform="matrix(1.3333333,0,0,-1.3333333,757.17587,159.02093)" />
    <path
       id="path197"
       d="m 0,0 c 9.988,2.604 14.982,-9.262 14.982,-9.262 -0.059,0.14 0.418,1.064 0.47,1.271 0.116,0.46 0.179,0.934 0.185,1.409 0.03,2.468 -1.393,5.205 -2.969,7.036 C 10.646,2.802 7.818,4.052 4.723,4.082 3.831,4.091 2.941,3.987 2.069,3.805 1.779,3.744 0.716,3.296 0.47,3.5 -10.799,13.019 -14.865,0.128 -14.865,0.128 -6.296,6.701 0,0 0,0"
       style="fill:#000000;fill-opacity:1;fill-rule:nonzero;stroke:none"
       transform="matrix(1.3333333,0,0,-1.3333333,678.47773,130.95053)" />
    <path
       id="path198"
       d="m 0,0 c -0.514,1.382 -0.362,2.996 0.402,4.257 0.764,1.262 2.123,2.144 3.586,2.329 -1.476,2.166 -1.325,5.151 -0.159,7.498 1.167,2.347 3.202,4.147 5.357,5.64 C 7.683,19.947 6.136,20.002 4.655,19.659 3.175,19.316 1.761,18.548 0.83,17.348 -0.065,16.193 -0.463,14.697 -0.423,13.237 -0.382,11.776 0.074,10.349 0.744,9.05 0.532,9.461 -2.251,6.649 -2.44,6.349 -3.165,5.203 -3.25,3.714 -2.683,2.486 -2.14,1.309 -1.088,0.622 0,0"
       style="fill:#000000;fill-opacity:1;fill-rule:nonzero;stroke:none"
       transform="matrix(1.3333333,0,0,-1.3333333,627.90933,165.1332)" />
    <path
       id="path199"
       d="m 0,0 c 4.17,-8.989 -5.282,-16.218 -5.282,-16.218 7.274,-3.336 2.409,-12.649 2.409,-12.649 8.294,3.151 2.548,13.39 2.548,13.39 1.781,0.668 11.581,8.909 6.347,19.766 -5.234,10.858 -22.717,4.51 -22.995,4.399 0,0 12.803,0.301 16.973,-8.688"
       style="fill:#000000;fill-opacity:1;fill-rule:nonzero;stroke:none"
       transform="matrix(1.3333333,0,0,-1.3333333,734.53253,185.47507)" />
    <path
       id="path200"
       d="m 0,0 c -5.05,-6.501 -16.194,-2.786 -15.73,-3.657 0.465,-0.87 8.823,-6.21 17.297,0 8.474,6.211 5.514,28.5 5.34,28.558 C 6.907,24.901 5.05,6.501 0,0"
       style="fill:#000000;fill-opacity:1;fill-rule:nonzero;stroke:none"
       transform="matrix(1.3333333,0,0,-1.3333333,740.5868,250.26067)" />
    <path
       id="path201"
       d="m 0,0 c 0,0 -1.514,-6.582 -7.118,-4.121 0,0 1.762,-3.646 5.039,-3.564 3.278,0.082 4.958,3.564 4.999,3.81 0,0 5.066,-2.106 9.284,0.487 4.218,2.593 2.247,9.369 2.247,9.369 C 14.451,5.981 10.683,-5.048 0,0"
       style="fill:#000000;fill-opacity:1;fill-rule:nonzero;stroke:none"
       transform="matrix(1.3333333,0,0,-1.3333333,683.24733,239.36507)" />
    <path
       id="path202"
       d="M 0,0 32.309,-1.443 32.46,1.93 0.151,3.373 Z"
       style="fill:#000000;fill-opacity:1;fill-rule:nonzero;stroke:none"
       transform="matrix(1.3333333,0,0,-1.3333333,580.11573,292.38653)" />
    <path
       id="path203"
       d="M 0,0 -32.309,1.443 -32.46,-1.93 -0.151,-3.373 Z"
       style="fill:#000000;fill-opacity:1;fill-rule:nonzero;stroke:none"
       transform="matrix(1.3333333,0,0,-1.3333333,614.90013,281.1808)" />
    <path
       id="path204"
       d="m 0,0 c 2.338,3.935 3.584,6.39 3.584,6.507 0,0.117 -5.143,-3.117 -6.662,-5.221 -2.168,-3.001 -2.104,-4.754 -1.598,-7.208 0,0 2.338,1.987 4.676,5.922"
       style="fill:#000000;fill-opacity:1;fill-rule:nonzero;stroke:none"
       transform="matrix(1.3333333,0,0,-1.3333333,397.104,141.60347)" />
    <path
       id="path205"
       d="m 0,0 c 0,0 2.649,1.403 4.948,8.65 2.299,7.247 4.949,14.572 4.715,14.65 l -0.234,0.078 c 0,0 -6.702,-4.987 -8.806,-10.793 C -0.479,9.545 -1.598,5.416 0,0"
       style="fill:#000000;fill-opacity:1;fill-rule:nonzero;stroke:none"
       transform="matrix(1.3333333,0,0,-1.3333333,395.96107,163.5268)" />
    <path
       id="path206"
       d="m 0,0 c 0.282,-0.105 0.544,0.191 0.391,0.451 -1.223,2.082 -4.9,8.318 -6.309,10.452 -1.326,2.008 -3.862,6.937 -4.918,9.019 -0.162,0.318 -0.638,0.243 -0.69,-0.11 -0.363,-2.454 -0.749,-8.607 2.835,-12.654 C -4.761,2.721 -1.896,0.708 0,0"
       style="fill:#000000;fill-opacity:1;fill-rule:nonzero;stroke:none"
       transform="matrix(1.3333333,0,0,-1.3333333,420.55173,258.94867)" />
    <path
       id="path207"
       d="m 0,0 c 0,0 8.249,-11.041 11.154,-14.899 2.904,-3.859 7.677,-9.389 9.666,-10.622 0,0 1.671,8.155 -4.137,15.435 C 10.875,-2.806 0,0 0,0"
       style="fill:#000000;fill-opacity:1;fill-rule:nonzero;stroke:none"
       transform="matrix(1.3333333,0,0,-1.3333333,588.4392,127.58973)" />
    <path
       id="path208"
       d="M 0,0 C 0,0 0.845,3.804 -4.387,8.635 -8.496,12.429 -14.406,12.19 -14.406,12.19 -14.222,12.052 -4.664,1.755 0,0"
       style="fill:#000000;fill-opacity:1;fill-rule:nonzero;stroke:none"
       transform="matrix(1.3333333,0,0,-1.3333333,617.644,141.63107)" />
    <path
       id="path209"
       d="M 0,0 C -0.198,0.85 -0.482,1.892 -0.814,3.035 L 2.298,4.773 C 2.848,2.918 3.213,1.635 3.213,1.635 Z m -0.219,-14.214 c -0.957,-1.77 -2.682,0.616 -3.319,1.459 -2.523,3.345 -4.311,7.132 -5.789,11.034 l 7.518,4.199 c 0.033,-0.146 0.07,-0.292 0.103,-0.439 0.643,-2.885 1.135,-5.803 1.473,-8.739 0.241,-2.104 1.079,-5.542 0.014,-7.514 m -10.5,3.014 c -2.711,4.624 -7.175,19.294 -7.175,19.294 0.159,-1.754 2.79,-15.467 2.79,-15.467 -4.226,2.95 -6.954,12.437 -6.954,12.437 2.056,-15.467 13.89,-26.31 13.89,-26.31 l -14.829,-3.986 c 0,0 -7.175,7.494 -10.843,19.134 -3.667,11.641 -1.435,25.752 -1.435,25.752 0,0 11.091,5.103 11.082,4.864 C -24.748,9.591 -22.364,7.8 -22.364,7.8 c -1.877,13.543 2.078,17.096 2.078,17.096 0.335,-9.118 1.81,-12.135 1.81,-12.135 -0.201,13.074 3.151,14.884 3.151,14.884 0,0 -1.005,-7.375 3.084,-25.41 C -8.151,-15.799 0,-18.093 0,-18.093 c -4.629,-1.49 -8.008,2.268 -10.719,6.893 M 3.676,-44.514 v -2.184 l -0.84,-0.279 -10.09,12.52 c 0,0 0.33,2.224 0.371,2.794 z m -43.29,-2.801 c 0,0 -12.016,11.251 -11.945,11.536 l 9.044,3.716 33.167,-3.289 L 0,-48.241 Z m 30.266,17.207 v -3.511 l -22.623,2.489 c 0.178,0 2.978,1.422 2.978,1.422 z m -135.863,26.496 14.049,10.72 c 1.813,-1.22 3.657,-2.25 5.504,-3.119 l -12.207,-12.555 13.537,11.962 c 2.362,-1.014 4.712,-1.778 6.992,-2.341 -4.734,-6.198 -9.705,-12.731 -9.705,-12.731 l 11.621,12.3 c 10.391,-2.118 18.811,-0.318 18.811,-0.318 -3.478,1.1 -6.245,1.951 -6.245,1.951 3.713,0.959 17.013,0.082 29.614,1.469 12.601,1.388 35.494,12.841 35.494,12.841 0,0 -0.314,-10.881 1.569,-21.447 1.883,-10.567 8.37,-19.564 8.37,-19.564 -62.781,-17.919 -98.908,-1.468 -117.404,20.832 m -6.801,9.713 13.646,7.174 c 1.748,-1.876 3.575,-3.511 5.45,-4.921 -5.066,-4.18 -10.339,-8.542 -13.172,-10.886 -2.243,2.812 -4.211,5.708 -5.924,8.633 m -3.679,7.155 13.148,5.27 c 0.387,-0.579 0.781,-1.156 1.21,-1.726 0.504,-0.668 1.018,-1.307 1.54,-1.925 L -152.67,7.248 c -1.123,1.999 -2.128,4.007 -3.021,6.008 m -2.963,7.841 12.789,3.65 c 0.606,-1.47 1.324,-2.925 2.162,-4.359 -4.091,-1.888 -8.466,-3.919 -12.549,-5.84 -0.932,2.205 -1.734,4.396 -2.402,6.549 m -0.494,1.661 c -0.655,2.317 -1.161,4.58 -1.529,6.762 4.123,0.699 8.506,1.457 12.747,2.197 0.296,-1.586 0.707,-3.167 1.232,-4.739 -4.043,-1.354 -8.343,-2.808 -12.45,-4.22 m -2.274,15.873 c 0.04,2.804 0.222,5.476 0.517,8.018 l 12.864,-1.39 c -0.585,-3.702 -0.708,-7.538 -0.224,-11.383 -4.149,-0.864 -8.525,-1.784 -12.669,-2.672 -0.364,2.632 -0.521,5.128 -0.488,7.427 m 3.034,20.345 13.05,-3.823 c -1.03,-2.641 -1.861,-5.439 -2.424,-8.337 l -13.01,0.83 c 0.536,4.132 1.368,7.91 2.384,11.33 m 5.165,12.597 12.684,-7.119 c -1.606,-2.423 -3.086,-5.16 -4.328,-8.122 -4.642,1.11 -9.353,2.233 -13.358,3.186 1.441,4.711 3.213,8.73 5.002,12.055 m -6.814,32.157 c 0,0 2.968,-6.38 5.44,-10.534 2.473,-4.154 7.468,-6.825 7.468,-6.825 -1.583,-7.814 -5.292,-8.605 -5.292,-8.605 -9.149,4.402 -7.616,25.964 -7.616,25.964 m 24.248,-33.368 c -1.167,-1.171 -2.327,-2.523 -3.444,-4.032 l -13.368,6.375 c 1.658,2.935 3.291,5.274 4.644,7.012 z m -8.841,13.13 c 5.057,-5.109 14.318,-9.048 14.318,-9.048 -1.183,-0.553 -2.422,-1.384 -3.672,-2.43 l -12.665,9.311 c 1.233,1.444 2.019,2.167 2.019,2.167 m 7.847,29.473 c 14.009,-7.218 22.463,-22.51 22.463,-22.51 0,0 -4.464,0.519 -5.755,-3.354 -1.291,-3.874 2.247,-6.791 2.247,-6.791 l -2.524,-1.241 -2.865,3.556 2.573,-3.7 -5.935,-2.918 c -0.282,0.035 -0.564,0.092 -0.846,0.138 l -8.955,8.519 7.586,-8.251 c -8.13,1.872 -15.805,8.42 -16.11,18.174 -0.332,10.637 8.121,18.378 8.121,18.378 m 25.607,-37.243 c -0.058,-0.062 -0.122,-0.11 -0.196,-0.122 -1.851,-0.299 -3.591,-0.696 -5.248,-1.165 l -2.245,2.787 c 2.304,0.754 4.344,1.221 5.922,1.507 0.498,-0.848 1.103,-1.877 1.767,-3.007 m -1.281,3.092 c 1.389,0.234 1.751,-1.722 1.481,-2.692 l -1.783,2.639 c 0.101,0.018 0.206,0.037 0.302,0.053 m 2.238,-4.72 c 2.684,-4.568 5.886,-10.012 6.988,-11.879 -1.088,-0.06 -2.175,-0.189 -3.257,-0.36 l -9.072,11.264 c 0.457,0.131 0.915,0.255 1.374,0.364 1.35,0.318 2.675,0.51 3.967,0.611 m 7.907,-0.51 4.532,-11.551 c -1.258,0.154 -2.536,0.223 -3.826,0.218 l -8.029,11.886 c 2.627,0.147 5.1,-0.104 7.323,-0.553 m -7.222,31.633 1.962,0.171 c 0.052,-6.868 0.932,-15.462 4.42,-20.225 l -2.567,20.388 2.048,0.179 c -0.152,-6.43 0.402,-14.307 3.115,-20.567 0,0 0.017,11.428 -0.471,20.799 l 0.552,0.048 2.226,-3.424 -0.426,-21.513 h -5.402 c -5.788,7.386 -5.457,24.144 -5.457,24.144 M -68.93,116.1 c 0.366,0.149 0.767,0.14 1.095,-0.078 2.341,-1.556 12.314,-8.502 15.372,-15.817 3.473,-8.308 0.47,-18.158 -4.215,-23.044 -4.685,-4.886 -17.177,-11.938 -33.195,0.655 0,0 4.578,2.084 4.292,5.824 -0.284,3.74 -6.38,6.132 -8.118,6.086 -0.347,0.184 16.888,23.165 24.769,26.374 M -83.101,7.461 c 7.128,5.608 16.331,15.259 17.298,29.948 0.811,12.322 -5.895,23.749 -9.973,29.476 -0.604,0.848 0.42,1.897 1.279,1.309 6.083,-4.163 16.397,-13.55 15.369,-28.875 C -60.685,16.102 -74.779,8.343 -82.237,5.85 c -0.985,-0.33 -1.68,0.969 -0.864,1.611 m -34.816,1.6 4.627,4.088 c 2.21,-1.159 3.773,-1.796 3.773,-1.796 l -0.463,-0.707 c -0.609,-0.784 -1.448,-1.874 -2.432,-3.155 -1.962,0.404 -3.796,0.941 -5.505,1.57 m -2.127,-1.879 0.444,0.392 c 0.659,-0.262 2.813,-1.134 6.068,-1.544 -0.483,-0.632 -0.989,-1.292 -1.509,-1.972 -1.851,0.271 -3.716,0.712 -5.587,1.347 0,0 0.337,1.118 0.584,1.777 m 1.197,9.324 c 1.122,-0.785 2.246,-1.49 3.308,-2.111 l -4.402,-4.526 c -1.647,0.715 -3.153,1.511 -4.53,2.345 z m -12.086,0.677 6.989,3.674 c 0.896,-0.971 1.894,-1.884 2.938,-2.729 -1.083,-0.871 -3.096,-2.519 -5.569,-4.551 -1.725,1.211 -3.172,2.449 -4.358,3.606 m -1.84,-0.968 c 1.945,-2.105 3.662,-3.453 4.523,-4.016 -0.688,-0.566 -1.395,-1.148 -2.121,-1.747 -1.707,1.41 -3.313,2.914 -4.794,4.506 z m -3.701,4.743 c 0.686,-1.049 1.392,-2.009 2.091,-2.878 l -2.321,-1.375 c -0.869,1.029 -1.687,2.089 -2.454,3.178 z m -2.989,5.616 c 0.517,-1.229 1.086,-2.382 1.687,-3.46 -0.873,-0.4 -1.779,-0.817 -2.711,-1.245 -0.776,1.239 -1.477,2.513 -2.112,3.81 z m -1.947,6.287 c 0.273,-1.32 0.609,-2.585 1.006,-3.783 -1.045,-0.347 -2.131,-0.709 -3.25,-1.082 -0.57,1.38 -1.051,2.788 -1.452,4.215 1.258,0.221 2.493,0.438 3.696,0.65 m -0.444,11.729 c -0.188,-1.619 -0.28,-3.223 -0.276,-4.787 0.005,-1.598 0.121,-3.125 0.318,-4.589 -1.237,-0.256 -2.525,-0.522 -3.848,-0.797 -0.742,3.467 -0.955,7.04 -0.579,10.647 z m 2.108,8.924 c -0.86,-2.336 -1.468,-4.721 -1.854,-7.091 l -4.428,0.282 c 0.411,2.66 1.148,5.332 2.25,7.991 z m 4.259,8.104 c -1.506,-2.108 -2.725,-4.347 -3.689,-6.65 -1.323,0.317 -2.679,0.643 -4.052,0.971 0.625,1.364 1.334,2.723 2.157,4.073 0.742,1.218 1.529,2.355 2.346,3.423 z m 4.495,5.056 c -1.021,-0.93 -1.961,-1.908 -2.827,-2.927 l -3.345,1.596 c 1.1,1.26 2.243,2.41 3.414,3.452 z m 6.781,4.754 c -1.74,-0.924 -3.332,-1.957 -4.787,-3.081 l -2.809,2.066 c 1.757,1.368 3.548,2.521 5.314,3.497 z m 1.139,0.576 -2.516,2.394 c 2.176,1.134 4.294,2.002 6.241,2.663 l 1.973,-2.837 c -2.047,-0.62 -3.941,-1.367 -5.698,-2.22 m 11.848,-11.271 -10.426,9.918 c 1.696,0.893 3.445,1.638 5.225,2.208 l 7.919,-11.388 c -0.919,-0.205 -1.825,-0.452 -2.718,-0.738 m -15.974,6.291 c 1.378,1.094 2.825,2.082 4.323,2.951 l 9.29,-10.106 c -0.81,-0.336 -1.603,-0.703 -2.373,-1.109 z m 8.587,-9.868 c -0.186,-0.128 -0.361,-0.269 -0.543,-0.403 l -12.573,5.996 c 0.799,0.894 1.642,1.746 2.52,2.553 z m -18.628,-2.654 c 1.015,2.136 2.262,4.154 3.688,6.03 l 11.392,-6.395 c -0.413,-0.433 -0.822,-0.869 -1.197,-1.335 -0.381,-0.474 -0.729,-0.952 -1.071,-1.43 -2.023,0.523 -6.944,1.719 -12.812,3.13 m 9.589,-8.969 -12.186,0.777 c 0.387,2.305 1.042,4.536 1.924,6.667 l 12.188,-3.571 c -0.77,-1.283 -1.41,-2.576 -1.926,-3.873 m 0.902,-20.677 c 0.276,-0.574 0.602,-1.135 0.967,-1.682 l -6.929,-4.104 c -0.491,0.574 -0.9,1.103 -1.217,1.561 -0.214,0.309 -0.461,0.672 -0.72,1.06 z m -1.78,4.838 c 0.186,-0.699 0.407,-1.385 0.645,-2.063 -1.376,-0.626 -4.348,-1.977 -8.144,-3.716 -0.535,0.931 -1.082,1.993 -1.606,3.181 z m -11.5,5.887 c -0.365,2.627 -0.438,5.565 -0.063,8.819 l 11.637,-1.258 c -0.517,-1.805 -0.813,-3.604 -0.912,-5.382 -1.552,-0.314 -5.547,-1.126 -10.662,-2.179 m 10.65,-0.585 c 0.041,-0.743 0.121,-1.478 0.225,-2.208 -1.503,-0.492 -4.999,-1.637 -9.486,-3.125 -0.371,1.089 -0.701,2.262 -0.973,3.515 4.026,0.711 7.59,1.346 10.234,1.818 m 33.345,36.651 c 2.708,-1.135 4.328,-2.222 4.328,-2.222 l 1.868,-9.63 c -0.584,0.282 -1.191,0.531 -1.807,0.764 z m 2.752,-10.548 c -1.024,0.307 -2.073,0.56 -3.151,0.743 l -5.011,11.555 c 1.618,-0.375 3.088,-0.845 4.366,-1.332 z m -13.919,-10.61 2.873,-0.315 -1.271,1.906 2.547,-0.347 -2.018,1.892 2.321,-0.191 c 0,0 -1.103,1.206 -1.227,1.312 -0.124,0.106 2.486,-0.052 2.663,-0.107 0.178,-0.056 -2.196,2.257 -2.196,2.257 l 3.21,-0.253 -2.765,1.839 c 0,0 1.99,1.492 3.44,1.799 1.45,0.307 7.148,-3.451 7.148,-3.451 0,0 -10.35,-6.446 -10.95,-13.196 0.449,0.087 0.911,0.136 1.385,0.136 0.694,0 1.363,-0.103 1.999,-0.286 l -0.54,1.716 3.583,-0.187 -0.38,2.005 2.298,-1.196 c 0,0 -0.484,3.399 -0.521,3.547 -0.037,0.147 2.372,-1.886 2.417,-1.91 0.046,-0.025 0.234,2.18 0.234,2.18 l 1.589,-2.413 0.659,2.194 1.356,-2.184 0.171,2.762 1.333,-1.91 c 0,0 0.225,1.618 0.228,1.782 0.003,0.163 1.546,-1.948 1.616,-2.12 0.07,-0.172 0.338,3.131 0.338,3.131 l 1.852,-2.634 -0.346,3.303 c 0,0 2.418,-0.582 3.579,-1.503 1.161,-0.921 1.9,-7.707 1.9,-7.707 0,0 -13.084,4.372 -18.136,-0.806 0.881,-0.919 1.52,-2.068 1.822,-3.35 l 1.546,1.507 1.448,-3.283 1.619,1.244 -0.032,-2.591 c 0,0 2.816,1.963 2.931,2.063 0.115,0.099 -0.614,-2.967 -0.616,-3.019 -10e-4,-0.052 2.052,0.774 2.052,0.774 l -1.438,-2.506 2.256,0.401 -1.339,-2.195 2.543,1.092 -1.105,-2.051 c 0,0 1.546,0.528 1.693,0.6 0.148,0.071 -1.042,-2.258 -1.164,-2.398 -0.122,-0.14 2.948,1.109 2.948,1.109 l -1.517,-2.841 2.792,1.798 c 0,0 0.57,-2.421 0.271,-3.872 -0.299,-1.452 -6.023,-5.169 -6.023,-5.169 0,0 -1.997,13.673 -8.91,15.832 -0.212,-0.806 -0.55,-1.559 -1.006,-2.229 l 1.296,-0.048 -1.374,-3.314 2.017,-0.312 -1.896,-1.766 c 0,0 3.365,-0.681 3.516,-0.696 0.151,-0.014 -2.57,-1.603 -2.609,-1.638 -0.038,-0.035 1.977,-0.95 1.977,-0.95 l -2.806,-0.69 1.848,-1.355 -2.512,-0.547 2.545,-1.086 -2.246,-0.616 c 0,0 1.45,-0.754 1.603,-0.811 0.153,-0.058 -2.353,-0.805 -2.539,-0.814 -0.185,-0.008 2.838,-1.366 2.838,-1.366 l -3.102,-0.864 3.228,-0.779 c 0,0 -1.357,-2.084 -2.613,-2.87 -1.257,-0.786 -7.899,0.788 -7.899,0.788 0,0 8.255,10.559 5.434,17.08 -0.837,-0.337 -1.749,-0.527 -2.706,-0.527 -0.591,0 -1.163,0.078 -1.713,0.212 l 0.608,-2.237 -3.573,0.328 0.301,-2.019 -2.249,1.286 c 0,0 0.349,-3.415 0.38,-3.564 0.031,-0.149 -2.295,1.978 -2.34,2.004 -0.045,0.026 -0.32,-2.17 -0.32,-2.17 l -1.492,2.475 -0.745,-2.167 -1.269,2.236 -0.28,-2.752 -1.256,1.961 c 0,0 -0.289,-1.608 -0.298,-1.772 -0.01,-0.163 -1.468,2.008 -1.531,2.183 -0.063,0.174 -0.462,-3.116 -0.462,-3.116 l -1.747,2.706 0.216,-3.314 c 0,0 -2.393,0.677 -3.517,1.643 -1.124,0.967 -1.593,7.776 -1.593,7.776 0,0 12.877,-4.878 18.139,0.073 -1.014,0.879 -1.786,2.031 -2.19,3.347 l -1.47,-1.244 -1.215,3.375 -1.702,-1.127 0.213,2.582 c 0,0 -2.947,-1.762 -3.068,-1.853 -0.122,-0.091 0.82,2.916 0.825,2.968 0.005,0.052 -2.101,-0.629 -2.101,-0.629 l 1.61,2.4 -2.279,-0.243 1.489,2.096 -2.613,-0.911 1.246,1.968 c 0,0 -1.58,-0.419 -1.732,-0.48 -0.152,-0.06 1.198,2.18 1.329,2.311 0.132,0.131 -3.018,-0.901 -3.018,-0.901 l 1.712,2.728 -2.911,-1.598 c 0,0 -0.4,2.455 0,3.882 0.399,1.427 6.37,4.735 6.37,4.735 0,0 0.98,-13.003 7.221,-16.161 0.285,1.137 0.836,2.165 1.587,3.018 l -1.168,0.476 2.429,2.641 -1.788,0.985 2.387,1.008 c 0,0 -2.927,1.795 -3.064,1.86 -0.137,0.066 2.965,0.625 3.013,0.644 0.048,0.02 -1.531,1.571 -1.531,1.571 m 36.692,-9.73 c 0,0 -0.638,-14.69 -10.786,-24.057 -8.259,-7.624 -19.332,-13.64 -31.138,-12.915 l 1.92,2.032 c 4.258,-0.067 9.719,0.81 15.847,4.102 14.307,7.688 19.974,17.262 20.368,29.246 0.395,11.984 -2.065,18.321 -8.116,24.678 -6.05,6.357 -11.501,9.743 -19.013,11.486 l -2.152,2.898 c 0,0 15.4,0.994 25.761,-12.206 10.361,-13.2 13.769,-30.166 6.387,-42.509 -7.382,-12.343 -17.954,-16.109 -17.954,-16.109 0,0 21.005,14.548 18.876,33.354 m 24.528,43.517 c 0.504,-4.677 -5.569,-11.491 -5.569,-11.491 3.714,2.468 7.224,8.288 7.224,8.288 l -0.287,-7.374 3.597,2.308 c 0,0 5.181,-8.712 6.548,-15.688 1.367,-6.975 0.782,-17.413 0.782,-17.413 -1.681,0.309 -1.724,3.019 -2.263,8.746 -0.539,5.727 -2.402,8.667 -2.402,8.667 0.619,-6.81 3.405,-36.913 3.405,-36.913 -1.597,-2.364 -7.816,-6.81 -16.019,-9.674 -8.203,-2.863 -18.573,-5.726 -18.573,-5.726 3.85,5.002 12.279,19.679 12.045,32.98 -0.255,14.448 -9.355,27.379 -9.355,27.379 12.736,5.747 18.277,17.278 18.277,17.278 0,0 2.087,3.31 2.59,-1.367 m 17.084,38.062 c 0,0 0.055,-12.982 -1.929,-23.862 -1.984,-10.88 -10.099,-13.465 -10.099,-13.465 -2.797,1.906 -5.53,13.104 -5.53,13.104 11.662,4.929 17.558,24.223 17.558,24.223 M -31.304,68.57 c 1.695,-4.103 -1.917,-5.887 -1.917,-5.887 -0.625,2.765 -3.479,9.901 -3.479,9.901 0.802,0.58 3.701,0.09 5.396,-4.014 m 2.56,-6.643 1.993,-34.282 c 0,0 -6.373,-1.931 -6.596,-1.875 0,0 0.95,20.113 1.229,26.594 0.167,3.882 1.29,7.484 2.164,9.748 0.243,0.63 1.171,0.49 1.21,-0.185 m 3.01,-4.298 c 2.499,-0.836 6.908,-8.718 6.908,-8.718 0,0 -1.43,-2.382 -0.929,-5.859 0.5,-3.478 4.216,-10.242 4.216,-10.242 l -8.432,-4.288 c -3.231,9.506 -3.399,29.653 -1.763,29.107 m 12.657,-33.725 c 0.093,0.185 0.189,0.343 0.288,0.475 0.925,1.233 2.109,0.239 3.148,-1.249 -1.567,-1.001 -3.034,-1.952 -3.921,-2.561 -0.015,1.153 0.005,2.374 0.485,3.335 m 4.594,-2.698 c 0.544,-1.023 0.963,-1.965 1.154,-2.383 0.172,-0.376 0.334,-0.757 0.5,-1.136 -2.624,-1.804 -5.286,-3.649 -6.425,-4.46 -0.181,1.519 -0.282,3.046 -0.298,4.578 z m 4.009,-9.5 C -7.6,9.892 -10.808,8.025 -12.155,7.222 c -0.28,1.152 -0.53,2.312 -0.733,3.479 1.184,0.715 4.205,2.661 7.09,4.534 0.468,-1.166 0.908,-2.343 1.324,-3.529 m 2.395,5.95 c 0.404,-0.797 0.919,-2.136 1.469,-3.711 -0.947,-0.549 -2.012,-1.166 -3.108,-1.801 -0.503,1.493 -0.945,2.778 -1.242,3.635 1.037,0.675 2.03,1.321 2.881,1.877 M -2.392,4.863 c -3.198,-1.756 -6.437,-3.535 -7.772,-4.27 -0.161,0.462 -0.323,0.925 -0.479,1.389 -0.279,0.831 -0.537,1.671 -0.785,2.515 l 7.901,4.357 c 0.411,-1.32 0.789,-2.651 1.135,-3.991 m 2.766,6.143 C 0.803,9.677 1.226,8.319 1.609,7.06 0.65,6.533 -0.415,5.949 -1.51,5.347 -1.91,6.64 -2.341,7.981 -2.765,9.275 Z m 5.079,-24.768 c 0.143,0.605 0.274,1.257 0.392,1.95 2.374,1.276 7.397,3.93 18.055,9.461 20.635,10.709 31.932,19.329 31.932,19.329 0,0 -22.006,-10.84 -28.144,-14.17 C 22.391,-0.066 9.665,-6.387 6.272,-8.068 c 0.055,0.919 0.074,1.895 0.058,2.917 2.265,1.116 7.185,3.603 15.35,8.024 11.819,6.399 16.39,11.036 16.39,11.036 0,0 -12.276,-6.4 -17.173,-8.867 C 16.901,3.029 8.953,-0.662 6.16,-1.954 c -0.047,0.515 -0.102,1.04 -0.17,1.576 2.821,1.684 7.46,4.483 12.36,7.561 7.901,4.963 12.472,10.513 12.472,10.513 0,0 -8.75,-5.289 -14.562,-8.478 C 11.78,6.759 7.119,4.833 5.212,4.077 5.068,4.727 4.914,5.385 4.738,6.06 c 2.448,1.39 8.847,5.141 19.228,12.028 13.582,9.011 16.259,14.235 16.259,14.235 L 3.804,9.255 c -0.025,0.076 -0.045,0.15 -0.07,0.226 -0.301,0.922 -0.608,1.792 -0.916,2.636 3.204,2.171 14.256,9.715 25.261,17.878 13.061,9.688 21.027,20.417 21.027,20.417 0,0 -20.047,-15.999 -25.075,-19.329 C 19.494,28.078 4.439,17.423 1.536,15.367 1,16.628 0.458,17.785 -0.083,18.846 c 0.177,0.146 0.393,0.325 0.656,0.542 v 10e-4 0 c 4.889,4.053 23.654,19.726 23.654,19.726 L -1.57,21.54 c -0.037,0.061 -0.074,0.127 -0.11,0.187 L 18.415,41.074 -2.285,25.769 36.307,61.121 2.286,33.695 10.253,44.73 -0.587,34.87 16.391,61.97 c 0,0 -16.843,-20.528 -25.899,-31.972 -0.611,0.312 -0.966,0.404 -0.966,0.404 0,0 1.67,8.438 -1.76,16.44 -3.43,8.003 -12.249,15.434 -14.617,16.251 0,0 1.248,5.775 -2.164,10.42 -2.817,3.837 -9.969,5.333 -9.969,5.333 l -0.22,4.166 c 0,0 6.705,-0.128 9.422,7.233 2.718,7.362 5.099,35.138 3.259,41.727 0,0 -0.801,1.538 -3.204,-3.646 -2.403,-5.185 -9.419,-20.231 -16.297,-25.936 l -3.574,5.61 1.078,-6.851 c 0,0 -12.857,15.513 -15.975,17.283 0,0 6.274,1.617 12.048,-2.463 0,0 -6.621,10.124 -12.279,12.01 -5.659,1.886 -9.855,-3.234 -12.241,-5.274 -2.387,-2.04 -12.241,-12.664 -12.241,-12.664 0,0 -5.772,0.097 -12.06,-0.223 -0.288,3.817 -0.693,6.831 -1.262,7.823 -0.026,0.046 -0.63,-3.21 -0.958,-7.953 -0.916,-0.061 -1.828,-0.133 -2.725,-0.216 l -0.789,6.267 c -0.064,-0.096 -0.381,-2.685 -0.514,-6.398 -0.62,-0.066 -1.225,-0.14 -1.813,-0.22 -0.321,0.739 -0.704,1.698 -0.936,2.552 -0.064,0.235 -0.05,-1.338 -0.029,-2.692 -1.702,-0.263 -3.214,-0.589 -4.37,-0.995 0,0 -6.532,5.164 -13.009,10.327 -6.476,5.164 -9.014,4.245 -11.203,2.889 -2.187,-1.357 -7.964,-6.958 -10.108,-11.028 l 8.527,2.536 c 0,0 -4.84,-8.613 -6.259,-13.903 -1.42,-5.29 -0.337,-8.435 -0.337,-8.435 0,0 -1.762,0.616 -1.988,0.906 -0.225,0.291 -0.225,10.903 -0.225,10.903 0,0 -1.871,-2.871 -2.194,-7.613 0,0 -8.015,12.178 -9.223,15.621 0,0 -3.521,-9.774 -0.875,-20.494 2.646,-10.72 3.613,-11.356 7.79,-13.723 -0.209,0.119 -0.679,-0.689 -1.304,-2.089 l -15.075,7.19 14.634,-8.214 c -1.322,-3.159 -3.13,-8.22 -4.698,-12.869 -5.097,1.212 -8.634,2.05 -8.634,2.05 l 8.487,-2.487 c -1.693,-5.04 -3.072,-9.492 -3.182,-10.316 -0.063,-0.467 -0.11,-0.936 -0.163,-1.405 l -19.885,1.269 19.784,-2.138 c -0.543,-5.428 -0.438,-10.911 0.266,-16.319 -7.593,-1.64 -14.005,-3.095 -16.124,-3.762 -0.212,-0.067 -0.382,-0.126 -0.505,-0.176 -1.468,-0.602 6.516,0.631 16.855,2.369 0.371,-2.438 0.863,-4.856 1.475,-7.244 -8.86,-3.071 -16.268,-5.777 -17.272,-6.571 l 17.679,5.045 c 0.669,-2.4 1.46,-4.765 2.367,-7.085 -1.783,-0.845 -3.477,-1.654 -5.025,-2.404 -0.044,0.192 -0.759,3.264 -1.795,3.97 -0.668,0.456 -1.582,-1.531 -1.323,-5.496 -2.455,-1.218 -4.265,-2.164 -5.06,-2.677 l 5.117,2.051 c 0.209,-2.298 0.789,-5.176 1.995,-8.587 3.502,-9.902 13.713,-23.716 34.85,-28.481 0,0 -21.81,15.081 -24.108,17.94 l 6.038,4.732 c 7.727,-10.096 17.917,-18.25 29.829,-22.901 19.609,-7.657 41.703,-7.313 62.28,-4.888 l 14.948,-15.858 44.209,-2.691 4.516,5.382 -13.166,19.125 0.384,4.805 8.561,2.966 c 0,0 0.653,1.01 1.365,2.973 4.318,1.922 14.757,6.717 23.005,10.68 10.056,4.833 30.626,17.827 30.626,17.827 0,0 -22.071,-9.925 -26.577,-12.276 C 27.567,-2.695 9.214,-11.881 5.453,-13.762"
       style="fill:#000000;fill-opacity:1;fill-rule:nonzero;stroke:none"
       transform="matrix(1.3333333,0,0,-1.3333333,630.3364,232.21987)" />
    <path
       id="path210"
       d="m 0,0 c 0,0 8.115,2.585 10.099,13.465 1.983,10.88 1.928,23.862 1.928,23.862 0,0 -5.896,-19.294 -17.557,-24.223 0,0 2.733,-11.198 5.53,-13.104"
       style="fill:#ffffff;fill-opacity:1;fill-rule:nonzero;stroke:none"
       transform="matrix(1.3333333,0,0,-1.3333333,575.77147,118.87173)" />
    <path
       id="path211"
       d="m 0,0 c 0.285,-3.74 -4.293,-5.824 -4.293,-5.824 16.018,-12.593 28.511,-5.541 33.195,-0.655 4.685,4.886 7.689,14.737 4.216,23.045 C 30.06,23.881 20.086,30.826 17.745,32.382 17.417,32.6 17.016,32.609 16.651,32.46 8.769,29.252 -8.465,6.271 -8.118,6.087 -6.381,6.132 -0.285,3.74 0,0"
       style="fill:#ffffff;fill-opacity:1;fill-rule:nonzero;stroke:none"
       transform="matrix(1.3333333,0,0,-1.3333333,516.22907,120.7004)" />
    <path
       id="path212"
       d="m 0,0 -7.585,8.251 8.954,-8.519 c 0.283,-0.046 0.565,-0.104 0.847,-0.139 l 5.935,2.919 -2.573,3.7 2.864,-3.556 2.525,1.241 c 0,0 -3.539,2.917 -2.248,6.791 1.291,3.873 5.755,3.354 5.755,3.354 0,0 -8.453,15.291 -22.463,22.51 0,0 -8.453,-7.741 -8.121,-18.379 C -15.805,8.42 -8.129,1.871 0,0"
       style="fill:#ffffff;fill-opacity:1;fill-rule:nonzero;stroke:none"
       transform="matrix(1.3333333,0,0,-1.3333333,458.61053,130.33547)" />
    <path
       id="path213"
       d="M 0,0 0.426,21.513 -1.8,24.937 -2.351,24.889 c 0.487,-9.371 0.47,-20.8 0.47,-20.8 -2.713,6.261 -3.266,14.137 -3.114,20.568 L -7.044,24.478 -4.476,4.089 c -3.488,4.764 -4.368,13.358 -4.42,20.226 l -1.963,-0.172 c 0,0 -0.331,-16.757 5.457,-24.143 z"
       style="fill:#ffffff;fill-opacity:1;fill-rule:nonzero;stroke:none"
       transform="matrix(1.3333333,0,0,-1.3333333,498.76933,124.12227)" />
    <path
       id="path214"
       d="m 0,0 c 0,0 -4.995,2.671 -7.468,6.825 -2.472,4.154 -5.44,10.534 -5.44,10.534 0,0 -1.533,-21.563 7.616,-25.964 0,0 3.709,0.791 5.292,8.605"
       style="fill:#ffffff;fill-opacity:1;fill-rule:nonzero;stroke:none"
       transform="matrix(1.3333333,0,0,-1.3333333,434.16453,117.058)" />
    <path
       id="path215"
       d="M 0,0 C 0.137,-0.065 3.064,-1.86 3.064,-1.86 L 0.677,-2.868 2.465,-3.854 0.036,-6.495 1.204,-6.97 C 0.453,-7.823 -0.098,-8.852 -0.383,-9.989 -6.625,-6.83 -7.605,6.173 -7.605,6.173 c 0,0 -5.97,-3.308 -6.369,-4.736 -0.4,-1.427 0,-3.881 0,-3.881 l 2.911,1.598 -1.712,-2.728 c 0,0 3.149,1.032 3.018,0.901 -0.131,-0.132 -1.481,-2.372 -1.329,-2.311 0.152,0.061 1.732,0.48 1.732,0.48 l -1.246,-1.969 2.613,0.912 -1.489,-2.096 2.279,0.243 -1.61,-2.4 c 0,0 2.105,0.68 2.101,0.629 -0.005,-0.052 -0.947,-3.06 -0.826,-2.968 0.122,0.091 3.069,1.853 3.069,1.853 l -0.213,-2.583 1.701,1.128 1.216,-3.376 1.47,1.244 c 0.404,-1.315 1.175,-2.467 2.19,-3.346 -5.262,-4.951 -18.139,-0.073 -18.139,-0.073 0,0 0.469,-6.81 1.593,-7.776 1.124,-0.966 3.517,-1.643 3.517,-1.643 l -0.216,3.314 1.747,-2.706 c 0,0 0.398,3.29 0.462,3.116 0.063,-0.175 1.521,-2.346 1.53,-2.183 0.01,0.163 0.299,1.772 0.299,1.772 l 1.256,-1.962 0.28,2.753 1.269,-2.236 0.744,2.167 1.493,-2.475 c 0,0 0.275,2.196 0.32,2.17 0.045,-0.026 2.371,-2.153 2.339,-2.004 -0.031,0.148 -0.379,3.564 -0.379,3.564 l 2.249,-1.286 -0.301,2.019 3.572,-0.329 -0.607,2.237 c 0.55,-0.133 1.122,-0.212 1.713,-0.212 0.957,0 1.869,0.191 2.706,0.528 2.821,-6.521 -5.434,-17.08 -5.434,-17.08 0,0 6.642,-1.574 7.898,-0.788 1.257,0.786 2.614,2.87 2.614,2.87 l -3.228,0.778 3.102,0.865 c 0,0 -3.023,1.357 -2.838,1.366 0.186,0.009 2.692,0.756 2.539,0.813 -0.153,0.058 -1.603,0.812 -1.603,0.812 l 2.246,0.616 -2.545,1.085 2.512,0.548 -1.848,1.354 2.806,0.691 c 0,0 -2.015,0.914 -1.977,0.949 0.039,0.035 2.76,1.625 2.609,1.639 -0.151,0.015 -3.516,0.696 -3.516,0.696 l 1.896,1.766 -2.018,0.312 1.375,3.314 -1.296,0.047 c 0.456,0.671 0.794,1.424 1.005,2.229 6.914,-2.159 8.91,-15.831 8.91,-15.831 0,0 5.725,3.717 6.024,5.168 0.299,1.452 -0.271,3.873 -0.271,3.873 l -2.792,-1.798 1.516,2.841 c 0,0 -3.069,-1.25 -2.947,-1.109 0.122,0.14 1.312,2.469 1.164,2.397 -0.147,-0.071 -1.694,-0.599 -1.694,-0.599 l 1.105,2.05 -2.542,-1.091 1.339,2.195 -2.256,-0.402 1.438,2.507 c 0,0 -2.053,-0.826 -2.052,-0.774 0.001,0.052 0.731,3.118 0.616,3.018 -0.115,-0.099 -2.931,-2.063 -2.931,-2.063 l 0.031,2.591 -1.618,-1.243 -1.448,3.282 -1.546,-1.506 c -0.302,1.282 -0.941,2.431 -1.823,3.35 5.053,5.178 18.136,0.805 18.136,0.805 0,0 -0.738,6.786 -1.899,7.707 -1.161,0.921 -3.579,1.503 -3.579,1.503 l 0.346,-3.303 -1.852,2.635 c 0,0 -0.268,-3.304 -0.338,-3.132 -0.071,0.172 -1.613,2.284 -1.616,2.12 -0.003,-0.163 -0.229,-1.782 -0.229,-1.782 L 19.507,1.724 19.336,-1.038 17.98,1.146 17.321,-1.049 15.732,1.365 c 0,0 -0.188,-2.205 -0.234,-2.18 -0.045,0.024 -2.454,2.057 -2.417,1.91 0.037,-0.148 0.521,-3.547 0.521,-3.547 l -2.299,1.196 0.381,-2.005 -3.583,0.187 0.54,-1.716 c -0.636,0.182 -1.305,0.286 -1.999,0.286 -0.474,0 -0.937,-0.049 -1.385,-0.136 0.599,6.75 10.95,13.196 10.95,13.196 0,0 -5.698,3.758 -7.148,3.451 C 7.609,11.7 5.619,10.208 5.619,10.208 L 8.384,8.369 5.174,8.621 c 0,0 2.373,-2.312 2.196,-2.256 C 7.193,6.42 4.582,6.578 4.707,6.472 4.831,6.365 5.934,5.159 5.934,5.159 L 3.613,5.351 5.631,3.458 3.084,3.806 4.355,1.9 1.482,2.215 c 0,0 1.579,-1.551 1.531,-1.571 C 2.965,0.624 -0.137,0.065 0,0"
       style="fill:#ffffff;fill-opacity:1;fill-rule:nonzero;stroke:none"
       transform="matrix(1.3333333,0,0,-1.3333333,485.42747,167.85413)" />
  </g>
</svg>
