<?xml version="1.0" encoding="UTF-8" standalone="no"?>
<!-- Created with Inkscape (http://www.inkscape.org/) -->

<svg
   version="1.1"
   id="svg1"
   width="416.81067"
   height="138.80615"
   viewBox="0 0 416.81067 138.80615"
   sodipodi:docname="simple_logo.svg"
   inkscape:version="1.4.3 (0d15f75, 2025-12-25)"
   xmlns:inkscape="http://www.inkscape.org/namespaces/inkscape"
   xmlns:sodipodi="http://sodipodi.sourceforge.net/DTD/sodipodi-0.dtd"
   xmlns="http://www.w3.org/2000/svg"
   xmlns:svg="http://www.w3.org/2000/svg">
  <defs
     id="defs1" />
  <sodipodi:namedview
     id="namedview1"
     pagecolor="#505050"
     bordercolor="#eeeeee"
     borderopacity="1"
     inkscape:showpageshadow="0"
     inkscape:pageopacity="0"
     inkscape:pagecheckerboard="0"
     inkscape:deskcolor="#505050"
     inkscape:zoom="5.5864756"
     inkscape:cx="218.56356"
     inkscape:cy="60.413761"
     inkscape:window-width="3440"
     inkscape:window-height="1351"
     inkscape:window-x="2551"
     inkscape:window-y="-9"
     inkscape:window-maximized="1"
     inkscape:current-layer="layer-MC0">
    <inkscape:page
       x="0"
       y="0"
       width="416.81067"
       height="138.80615"
       id="page2"
       margin="0"
       bleed="0" />
  </sodipodi:namedview>
  <g
     id="layer-MC0"
     inkscape:groupmode="layer"
     inkscape:label="Layer 1"
     transform="translate(-68.018745,-1263.1875)">
    <path
       id="path111-7"
       d="m 177.78941,1356.6506 h 27.28267 l 34.71866,-93.0387 h -49.95333 l -73.832,112.668 H 68.018749 l 12.50666,25.7134 h 51.789331 l 66.32267,-101.2 z"
       style="fill:#ff0000;fill-opacity:1;fill-rule:nonzero;stroke:none;stroke-width:1.33333" />
    <path
       id="path112-1"
       d="M 313.28887,1263.1876 H 292.2582 l -9.028,22.676 h 5.044 c 4.66534,0 7.816,4.7613 5.99334,9.056 l -16.14,38.024 c -1.02134,2.404 -3.38134,3.9667 -5.99334,3.9667 h -9.228 l -8.23733,20.6906 h 28.20933 c 5.63467,0 10.70934,-3.4066 12.844,-8.62 l 28.476,-69.5373 c 3.176,-7.756 -2.528,-16.256 -10.90933,-16.256"
       style="fill:#ffffff;fill-opacity:1;fill-rule:nonzero;stroke:none;stroke-width:1.33333" />
    <path
       id="path113-1"
       d="m 227.79141,1357.6008 h 21.95733 l 8.23867,-20.6907 h -0.77467 c -8.156,0 -8.69333,-7.7266 -6.87066,-12.02 l 14.88266,-35.0586 c 1.02,-2.4054 3.38,-3.968 5.99334,-3.968 h 7.092 l 9.028,-22.676 h -25.556 c -7.07334,0 -13.44534,4.276 -16.12534,10.8226 l -26.168,66.5854 c -3.41066,8.3293 -0.69733,17.0053 8.30267,17.0053"
       style="fill:#ffffff;fill-opacity:1;fill-rule:nonzero;stroke:none;stroke-width:1.33333" />
    <path
       id="path114-5"
       d="m 360.72901,1263.8288 h -25.472 l -36.03467,94.0053 h 25.472 z"
       style="fill:#ffffff;fill-opacity:1;fill-rule:nonzero;stroke:none;stroke-width:1.33333" />
    <path
       id="path115-2"
       d="m 379.46487,1284.7134 c 1.67733,0.2173 3.428,0.1933 4.86533,1.256 1.13467,0.832 1.91867,2.148 2.124,3.5493 0.27867,1.9067 -0.48266,3.8147 -1.412,5.504 -2.54666,4.648 -6.676,8.8374 -11.57733,11.1547 h -23.75733 l -3.70667,9.6573 10.88933,41.9987 h 27.62134 l -9.248,-34.296 c 0.27733,-0.024 0.544,-0.061 0.80933,-0.097 6.712,-0.9294 12.96533,-4.104 18.04667,-8.5467 2.004,-1.7507 3.9,-3.6333 5.66266,-5.6373 3.80267,-4.3587 6.832,-9.332 9.05334,-14.668 2.04133,-4.8894 3.70666,-10.032 2.88533,-15.404 -0.12,-0.748 -0.27733,-1.484 -0.47067,-2.2094 -0.748,-2.788 -2.076,-5.42 -3.88666,-7.6773 -1.268,-1.5933 -3.18667,-2.5707 -5.07067,-3.344 -3.53733,-1.436 -7.412,-1.956 -11.25067,-2.124 h -23.88933 l -8.004,20.884 z"
       style="fill:#ffffff;fill-opacity:1;fill-rule:nonzero;stroke:none;stroke-width:1.33333" />
    <path
       id="path116-7"
       d="m 200.22967,1373.6944 c 1.356,-3.0267 -0.85867,-6.444 -4.17467,-6.444 h -20.596 l -3.58533,8.0027 h 17.78267 l -2.656,5.916 -2.644,5.9026 -3.05334,6.8094 -0.14533,0.3133 h -8.776 l 0.132,-0.3133 3.05467,-6.8094 2.644,-5.9026 1.27866,-2.8494 h -8.99333 l -1.28,2.8494 -2.64267,5.9026 -6.7,14.9214 h 20.76134 c 4.20266,0 8.012,-2.4694 9.728,-6.304 l 0.668,-1.4947 3.19866,-7.1227 2.644,-5.9026 2.656,-5.916 z"
       style="fill:#ffffff;fill-opacity:1;fill-rule:nonzero;stroke:none;stroke-width:1.33333" />
    <path
       id="path117-6"
       d="m 204.09447,1375.2537 0.20533,5.9147 0.16934,4.7093 4.104,-4.7093 5.13066,-5.8667 v -0.048 l -0.27733,-8.004 h -9.60933 z"
       style="fill:#ffffff;fill-opacity:1;fill-rule:nonzero;stroke:none;stroke-width:1.33333" />
    <path
       id="path118-1"
       d="m 227.05554,1375.2537 7.28,-8.004 h -9.69467 l -7.27866,8.004 -3.52534,3.8627 -1.85866,2.052 -5.37334,5.904 -1.352,1.4853 -2.42533,5.6373 -3.36933,7.7987 h 8.716 l 3.356,-7.7987 1.54533,-3.5733 3.224,-3.5493 5.372,-5.904 z"
       style="fill:#ffffff;fill-opacity:1;fill-rule:nonzero;stroke:none;stroke-width:1.33333" />
    <path
       id="path119-4"
       d="m 233.98807,1372.9854 -3.63733,8.184 -2.752,5.9027 -3.32,7.1226 -3.62134,7.7987 h 8.088 l 3.63334,-7.7987 3.32,-7.1226 0.31466,-0.676 -0.83333,-5.2267 z"
       style="fill:#ffffff;fill-opacity:1;fill-rule:nonzero;stroke:none;stroke-width:1.33333" />
    <path
       id="path120-2"
       d="m 261.32781,1375.2537 3.69467,-8.004 h -9.284 l -3.51334,8.004 -2.59466,5.9147 -2.23334,5.0586 -0.508,-5.0586 -0.59066,-5.9147 -0.80934,-8.004 h -9.17466 l 0.99066,8.004 0.82,6.604 0.652,5.2147 0.89334,7.1226 0.96666,7.7987 h 8.36534 l 3.59733,-7.7987 3.284,-7.1226 2.716,-5.904 z"
       style="fill:#ffffff;fill-opacity:1;fill-rule:nonzero;stroke:none;stroke-width:1.33333" />
    <path
       id="path121-3"
       d="m 376.88714,1372.9854 -3.63733,8.184 -2.752,5.9027 -3.32,7.1226 -3.62134,7.7987 h 8.088 l 3.63467,-7.7987 3.31867,-7.1226 0.31466,-0.676 -0.83333,-5.2267 z"
       style="fill:#ffffff;fill-opacity:1;fill-rule:nonzero;stroke:none;stroke-width:1.33333" />
    <path
       id="path122-2"
       d="m 401.49901,1381.1689 2.728,-5.9147 3.69467,-8.004 h -9.284 l -3.51334,8.004 -2.59466,5.9147 -2.23334,5.0587 -0.50666,-5.0587 -0.592,-5.9147 -0.80934,-8.004 h -9.17466 l 0.99066,8.004 0.82,6.6027 0.652,5.2147 0.89334,7.1226 0.96533,7.7987 h 8.36667 l 3.59733,-7.7987 3.284,-7.1226 z"
       style="fill:#ffffff;fill-opacity:1;fill-rule:nonzero;stroke:none;stroke-width:1.33333" />
    <path
       id="path123-2"
       d="m 423.11021,1372.9854 -3.63733,8.184 -2.752,5.9027 -3.32,7.1226 -3.62134,7.7987 h 8.088 l 3.63467,-7.7987 3.31867,-7.1226 0.31466,-0.676 -0.83333,-5.2267 z"
       style="fill:#ffffff;fill-opacity:1;fill-rule:nonzero;stroke:none;stroke-width:1.33333" />
    <path
       id="path124-1"
       d="m 447.72194,1381.1689 2.728,-5.9147 3.69467,-8.004 h -9.284 l -3.51334,8.004 -2.59466,5.9147 -2.23334,5.0587 -0.50666,-5.0587 -0.592,-5.9147 -0.80934,-8.004 h -9.17466 l 0.99066,8.004 0.82,6.6027 0.652,5.2147 0.89334,7.1226 0.96533,7.7987 h 8.36667 l 3.59733,-7.7987 3.284,-7.1226 z"
       style="fill:#ffffff;fill-opacity:1;fill-rule:nonzero;stroke:none;stroke-width:1.33333" />
    <path
       id="path125-6"
       d="m 313.85327,1375.2537 h 27.66933 l 3.69334,-8.004 h -27.668 z"
       style="fill:#ffffff;fill-opacity:1;fill-rule:nonzero;stroke:none;stroke-width:1.33333" />
    <path
       id="path126-8"
       d="m 320.25154,1381.1689 -2.716,5.9027 -3.284,7.1226 -3.59733,7.7987 h 8.95733 l 3.58533,-7.7987 3.284,-7.1226 2.716,-5.9027 1.60534,-3.4653 h -8.95734 z"
       style="fill:#ffffff;fill-opacity:1;fill-rule:nonzero;stroke:none;stroke-width:1.33333" />
    <path
       id="path127-5"
       d="m 343.70741,1394.1946 3.284,-7.1227 2.716,-5.9026 2.728,-5.916 3.69467,-8.004 h -8.98267 l -3.69333,8.004 -2.728,5.916 -2.716,5.9026 -3.284,7.1227 -0.33867,0.724 c -1.52133,3.308 0.89333,7.0747 4.528,7.0747 h 5.73333 l 3.09067,-7.7987 z"
       style="fill:#ffffff;fill-opacity:1;fill-rule:nonzero;stroke:none;stroke-width:1.33333" />
    <path
       id="path128-7"
       d="m 369.54167,1381.1689 2.728,-5.9147 3.69467,-8.004 h -9.19867 l -3.69467,8.004 -2.728,5.9147 -2.716,5.9027 -3.284,7.1226 h -3.51333 l -3.10267,7.7987 h 6.664 c 3.38,0 6.45867,-1.968 7.88267,-5.0453 l 1.268,-2.7534 3.284,-7.1226 z"
       style="fill:#ffffff;fill-opacity:1;fill-rule:nonzero;stroke:none;stroke-width:1.33333" />
    <path
       id="path129-6"
       d="m 414.38914,1381.1689 2.728,-5.9147 3.69467,-8.004 h -8.39067 l -3.68133,8.004 -2.728,5.9147 -2.71734,5.9027 -3.28266,7.1226 -3.59734,7.7987 h 8.37734 l 3.59733,-7.7987 3.284,-7.1226 z"
       style="fill:#ffffff;fill-opacity:1;fill-rule:nonzero;stroke:none;stroke-width:1.33333" />
    <path
       id="path130-1"
       d="m 454.93927,1374.312 -0.43467,0.9413 -2.728,5.916 -2.716,5.9027 -3.284,7.1227 -2.04,4.4306 c -0.724,1.5694 0.42267,3.368 2.148,3.368 h 6.036 l 13.77467,-34.732 c -4.636,0.097 -8.8,2.8254 -10.756,7.0507"
       style="fill:#ffffff;fill-opacity:1;fill-rule:nonzero;stroke:none;stroke-width:1.33333" />
    <path
       id="path131-8"
       d="m 462.41181,1387.0721 h 5.89067 l -3.27067,7.1227 h -6.92933 l -3.09067,7.7986 h 11.528 c 2.5,0 4.78133,-1.4613 5.832,-3.7306 l 1.87067,-4.068 3.284,-7.1227 2.716,-5.9027 h -15.11467 z"
       style="fill:#ffffff;fill-opacity:1;fill-rule:nonzero;stroke:none;stroke-width:1.33333" />
    <path
       id="path132-9"
       d="m 465.61074,1375.2537 h 15.52533 l 3.69334,-8.004 h -16.044 z"
       style="fill:#ffffff;fill-opacity:1;fill-rule:nonzero;stroke:none;stroke-width:1.33333" />
    <path
       id="path133-2"
       d="m 292.48581,1367.2498 h -9.404 l -3.17467,8.004 h 4.92534 l -2.728,5.9147 -2.71734,5.904 -3.28266,7.1226 h -3.70667 l -3.09067,7.7974 h 6.83334 c 3.24666,0 6.19333,-1.8827 7.55733,-4.84 l 1.364,-2.9574 3.284,-7.1226 2.716,-5.904 2.728,-5.9147 1.59333,-3.4773 c 0.97734,-2.112 -0.568,-4.5267 -2.89733,-4.5267"
       style="fill:#ffffff;fill-opacity:1;fill-rule:nonzero;stroke:none;stroke-width:1.33333" />
    <path
       id="path134-7"
       d="m 265.58927,1394.1946 3.284,-7.1227 2.716,-5.9026 2.728,-5.916 h 2.49867 l 3.17466,-8.004 h -5.16666 c -3.54934,0 -6.772,2.0653 -8.25734,5.288 l -1.25466,2.716 -2.728,5.916 -2.71734,5.9026 -3.28266,7.1227 c -0.35067,0.76 -0.508,1.5453 -0.508,2.3053 0,2.8974 2.31866,5.4934 5.49333,5.4934 h 4.648 l 3.09067,-7.7987 z"
       style="fill:#ffffff;fill-opacity:1;fill-rule:nonzero;stroke:none;stroke-width:1.33333" />
    <path
       id="path135-9"
       d="m 468.30021,1343.794 c 0.536,0 0.844,-0.6107 0.524,-1.0413 l -0.76667,-1.0347 c -0.664,-0.896 -1.71466,-1.4253 -2.82933,-1.4253 h -4.33733 l 0.90533,3.5013 z"
       style="fill:#ffffff;fill-opacity:1;fill-rule:nonzero;stroke:none;stroke-width:1.33333" />
    <path
       id="path136-5"
       d="m 397.16234,1335.585 7.70133,9.7307 1.304,-8.4267 0.20534,-1.304 h 4.79333 l 7.74933,9.8027 1.50934,-9.8027 h 4.78 l -2.29334,14.848 -0.39866,2.512 h -3.63334 l -0.95333,-1.196 -7.76267,-9.8147 -1.304,8.4387 -0.39733,2.572 h -3.58533 l -0.99067,-1.268 -12.736,-16.092 z m 34.40667,0 h 3.71733 l 1.78667,6.8693 h 6.60266 l -1.78666,-6.8693 h 4.54666 c 0.728,0 1.364,0.492 1.54667,1.196 l 3.684,14.1627 c 0.26267,1.012 -0.50133,2.0013 -1.54667,2.0013 h -3.716 l -1.62933,-6.2653 h -6.604 l 1.61867,6.2653 h -4.54534 c -0.72933,0 -1.36533,-0.4933 -1.548,-1.1973 l -3.67333,-14.1627 c -0.26267,-1.012 0.50133,-2 1.54667,-2 m 36.73333,0 c 1.94666,0 3.66133,1.2827 4.212,3.1507 l 2.10266,7.1453 c 0.40134,1.3627 -0.604,2.7333 -2.024,2.7613 l -9.48133,0.1854 1.07467,4.1173 h -6.30133 l -4.51467,-17.36 z m -77.752,21.5653 h 94.16133 l -7.24933,-26.4893 h -94.16133 z"
       style="fill:#ffffff;fill-opacity:1;fill-rule:nonzero;stroke:none;stroke-width:1.33333" />
  </g>
</svg>
